<?xml version="1.0" encoding="UTF-8"?>
<svg id="Capa_2" data-name="Capa 2" xmlns="http://www.w3.org/2000/svg" viewBox="0 0 618.37 755.04">
  <defs>
    <style>
      .cls-1 {
        fill: #fff;
      }
    </style>
  </defs>
  <g id="Capa_1-2" data-name="Capa 1">
    <g>
      <path class="cls-1" d="M47,306.07l17.99,8.99c-2.94,1.81-20.48-6.31-17.99-8.99Z"/>
      <g>
        <path class="cls-1" d="M255.99,182.07c-.25,1.5.16,3.41,0,5.01l5,.98-5.06.45-.93,4.56,8.49-3-.49,3c4.74,1.26,8.6-.55,13-1.99l-2.99,2.99c7.72-.68,17.93.92,24.5-2.97l.5,2.97,23.01-.98-1.01,1.98c7.72-.8,19.21,6.79,25.71,6.77,2.86-.01,7.22-5.39,10.3-5.75l-6.99,5.49,7.99,3.49c-12.52-3.61-22.26,3.82-34.45,4.06-7.23.14-14.36-1.26-22.04-1.05-2.47.07-6.07,2.69-7.51-1,15.22-1.33,33.06,3.67,47.54-2.97.99-.45,2.35-.61,2.46-2.03-12.07-3.64-23.92-6.19-36.56-7.1l-2.43,2.08-.61-2.08-5.39,1.1,1.99,1.98-5.98,2.01,2.98-2.01-1.84-1.1.85-1.88c-12.88.4-25.4-.17-38.01,2-1.06,1.01,5.67,14.57,6.72,16.74.5,1.04,1.68,1.06,2.19,2.05,1.08,2.1,2.21,8.59,4,10.59,1.06,1.18,2.84.41,3.09.63.16.13-1.1,2.43-1.01,3.99-.63-.25-2.13.22-3.01-.01.58-5.23-4.4-13.34-7.1-18.41-.62-1.16-2.43-1.37-2.66-1.75-.48-.76,1.13-8.41-6.22-6.84.24,7.16-2.05,15.51-1.09,22.58.27,2.01,2.24,1.28,2.1,1.9-3.94,5.59.38,13.82-1,20.52l3-.49c-1.61,2.92-2.63,4.98-2.01,8.49-.1-.37-1.31-3.08-1.5-3-23.78,24.29-19.4-8.02-19.44-23.56,0-3.47-2.26-3.59,1.26-5.65l2.67-8.78-3.03,16.54c1.29,5.52-2.3,27.55,4.74,29.32,4.28,1.08,5.45-4.43,7.64-6.52.67-.64,2.56-.71,3.73-1.74,2.7-2.39,2.07-5.72,1.91-9.09-.69-14.28-2.51-29.73-.04-43.05.21-1.14.07-2.31.05-3.45-2.41,1.34-6,1.21-8.33,2.18-3.13,1.29.17.88-5.66,2.2-5.54,1.25-10.5,4.28-16,5.63l1.99,1.98-6.99.52c3.56-5.83,13.56-6.59,19.99-8.52l-2.99-1.98,7.04-.47,1.46-6.54,1.12,2.06,8.41-1.52.97-4.53c-2.49-.09-5.02.1-7.52,0-1.21-.05-3.71.76-3.48-.99l11.07-.44c.24-.17,1.85-4.99,1.93-5.58Z"/>
        <path class="cls-1" d="M84.99,115.07c.24-.28.3-1.77,1.43-3.03s5.21-5.06,6.57-5.46,2.6,1.44,5.61.7c3.13-.77,4.37-3.76,6.39-2.71l-1.99,3.49c6.09,1.21,9.61,13.16,15.49,4.01l.99,3,7.02-3.99c.75-1.05-1.3-2.26-2.05-2.97-17.19-16.33-36.68-7.41-55.14.79-5.1,2.26-5.04,2.96-11.01,4.89-4.63,1.5-11.81,7.7-16.3,10.28-.23-2.34,2.09-3.64,3.67-4.82,13.62-10.17,33.48-16.52,49.14-21.86,4.92-1.68,13.48-6.58,17.73-7.29,2.36-.39,2.51.55.2,1.21l-11.75,5.75c6.43-.29,12.06,3.2,17.73,4.78,1.47.41,4.92-.02,5.22.28.27.26-.45,4.01,2.99,6.5,7.62,5.52,9.69-7.77,7.58-13.58l-2.98-1.02c-.55.1-2.83,4.98-4.29,6.05-1.1.81-4.25,1.93-3.24-.49,1.68-4.03,15.3-11.07,9.5-17.49-.54-.04-5.96,3.79-6.5.98l8.35-2.09c4.15,3.08-2.08,9.36-2.08,10.58,0,.65,2.12,2.47,2.52,4.21,1.05,4.6-2.17,10.77,3.21,10.79l-3.87,1.64-.14,5.86h18.5l7.49-4.99c-3.18-.47-6.11-1.47-9.43-.96-4.01.62-5.21,4.9-9.56,3.94.06-1.95,2.87.09,1.19-2.8l5.8-4.69-3.99-1.48c2.55-.35,5.25-.62,7.52-1.98,4.23-2.54,12.92-13.38,17.46-17.54,2.15-1.96,14.29-12.93,15.53-13.48.44-.2,1.64-.25,1.48.49l-31.99,30.01c.62,1.29,2.75.1,3.71-.29,7.14-2.92,25.05-24.12,32.27-30.77,1.63-1.51,3.78-.91,2.96-3.4l-1.93-.53c7.56-4.8,8.86-12.37,13.2-19.81,1.91-3.28,14.59-24.66,16.3-24.68,1.42,1,1.55,1.8,1.55,3.45,0,3.8-7.89,20.75-7.06,21.52,2.45-.3,5.14.44,6.01,2.99l-2.86.9-1.63-2.87c-4.21,2.56-6.07,5.35-8.5,9.49l2,.99-7,13.49c.86.66,14.91-5.51,16.72-6.68,2.37-1.54,2.69-5.47,3.7-1.4,8.04-3.38,6.16,4.94,7.08,10.08,1.23-2.16,4.41-5.86,5.06-7.94.22-.71,1.45-7.17,1.45-7.55V25.07c1.58.5,2.67,1.92,2.98,3.52,1.5,7.7-2.52,18.7-.98,26.97.04,1.17,1.23,0,1.51-.49,8.01-13.69,7.5-25.93,4-41.02-1.01-4.37-3.88-16.91-10.01-10.99-1.54-3.05,2.83-3.71,5.49-2.48,9.55,4.39,8.41,42.07,9.02,51.98.7,11.48,2.65,22.95,2,34.51,1.5-.54,2.49-3.82,3.16-5.33,4.59-10.26,6.76-20.36,6.84-31.66l1.98,4.99,3-25-1.98,1.01c-.01-2.77-.97-7.14,2.98-7,6.71,4.85-9.61,59.17-15.99,66.99,24.88-1.4,51.85,1.93,76.48,0,3.79-.3,7.62-2.05,11.51-1.99l-3.48-3.01c5.81,2.49,9.13,2.85,15.49,2.01l-1.67-6.03c-4.94-.18-9.89.44-14.75,1.11-2.9.4-4.99,3.26-9.58.91.38-1.83,1.96-1.85,3.46-2.03,6.76-.81,13.79-.87,20.54-1.97l-1.93-5.56c-10.42.1-13.54-5.44-4-11.08-1.94-9.05-15.52-53.64-11.59-59.37l3.52-.97c-3.15,19.71,5.74,39.92,10.05,58.96l6.8-2.12-9.13-39.06-7.7-15.79c12.21,12.45,13.04,32.91,18,49l5.99-2.01c-3.92-13.31-6.2-27.2-8.62-40.88-.26-1.48-1.24-2.43,1.1-2.1,5.4,9.11,3.13,23.71,6.54,33.23.51,1.42,3.15,1.26,3.82,3.46.77,2.54-.77,4.84-.38,7.31,1.15,7.32,7.89,6.33,10.04,12.99,2.24-2.35-1.15-5.47-1.33-6.69-.23-1.52,5.2-7.5-3.17-8.31l-.5,3-2.5-4.99,7.41,2.06,2.58-3.06v4.01c1.03-.03,1.96-.74,3.02-.41,17.27,5.42,28.85,22.21,45.96,26.93,21.52,5.94,44.44,2.78,66.52,4.48,10.17.78,32.34,5.36,20.51,18.98,13.27-3.8,22.65-1.65,35.26,2.25,2.56.79,5.09,3.02,7.46,3.54,5.28,1.15,12.09-.27,16.8,4.2,2.08,1.97,1.82,4.51,4.75,6.25,1.72,1.02,8.24,3.03,10.46,3.54,5.24,1.2,11.91-2.05,10.27,6.24-.67.71-8.64-1.4-9.98,1.49,2.8,2.75,2.14,7.57,3.52,10.46.92,1.92,4.14,3.22,5,5.99,1.16,3.73-.73,8.73-.1,10.05,3.63,7.6,25.11-10.35,23.88,9.85-1.03,16.96-12.18,31.77-21.5,45.49-2,2.94-5.63,5.5-7.04,8.96-1.94,4.77-3.25,20.62-6.04,23.46-3.31.65-4.98,3.74-7.48,5.02-5.98,3.05-17.84,4.06-22.65,7.35-3.06,2.09-6.14,9.12-9.13,11.87-3.78.26.56-4.75-.98-5.99-2.58,2.94-6.31,4.6-9.82,6.18s-10.75,1.74-9.69,5.81l-1.5-3.01c-6.75,2.13-4.01,9.56-4.5,15.01l-2.98-1,.21,7.79c2.19,2.32,12.34,4,12.36.17,0-1.21-2.02-5.66.41-5.95l2.02,7.48c1.82-.39,18.95,5.55,15.98,8.51-4.88-3.7-10.67-6.54-16.99-5.99l.94,23.47,3.06,1.02c-4.78,3.11-3.17,8.31-4.45,12.55-2.3,7.65-4.94,13.74-10.04,19.96-4,4.88-10.1,8.62-13.49,13.51-2.35,11.98,4.23,13.82,6.98,23.48-4.56.82-4.64-4.52-7.98-5.99-1.19,1.47.1,5.37-.16,5.8-1.14,1.86-4.67,6.64-6.44,9.11-3.02,4.19-7.99,5.49-6.42,12.08l-1.49-3.99c-8.56,9.67-21.49,12.01-32.4,17.48,1.13,1.41,1.43,2.85,1.89,4.52-.46-.31-1.83-1.17-1.99-1-2.43,7.86-4.23,16.21-3.09,24.57.26,1.92,2.06,1.33,2.14,2.05.18,1.57-1.43,3.56-1.05,5.37l8.98-3.05c-1.43-4.49.54-8.44-.08-13.36-.55-4.37-3.59-9.81-4.91-14.58,3.5,2.39,9.37,17.99,9.06,22.48-.77,11.09-18.97,7.07-11.49,19.44,1.85,3.06,17.05,11.8,21.44,15.56,12.43,10.66,25.13,26.91,34.8,40.2,10.79,14.83,22.8,31.76,28.18,49.31l-14.97-27.52c-14.79-20.71-29.94-44.92-49.55-61.45-2.56-2.15-18.39-14.05-20.47-12.03-.34,17.21,3.83,33.55,8,50.01l1.98-1.01c-.11,2.39-.09,4.69.46,7.06,1.1,4.75,9.37,28.62,12.18,30.81,4.88,3.82,14.25,6.6,19.36,10.64l-4.99-1.5c2.49,5.78-1.44,10.67-6.09,13.64l5.58,15.36,1.99,1.04,19.5-7.04-.16,3.84-18.91,7.79c.53,4.38,1.95,8.58,3.14,12.8,1.84,6.54.57,2.49-.02,7.11-.38,2.89.21,5.95-.8,8.84l12.77,13.61c-5.44-2.11-9.01-8.35-13.5-11.99l-4.49,8.98c6.43,4.8,20.4,6.71,24.99,12.53.38.48,3.2,5.22,3.01,5.47-.08.1-1.61,0-2.4,1.08-7.25,9.8-15.51,17.3-27.61,21.44-2.79.95-8.62,1.18-10,2-1.57.94-2.29,6.29-5.7,7.31-6.97,2.07-29.04-8.99-32.28-7.35-13.48,18.57-33.23,36.79-55.03,45.02-1.09.41-6.48,2.61-6.96.54,11.22-3.98,24.13-8.82,31.99-18l-56.49,7.98-19.5-2.98c11.57-.13,22.81,1.49,34.38-.13,8.48-1.19,18.93-5.1,26.62-8.88l-9.99,5.99c10.04.6,19.64-3.01,27.61-8.91l2.37,1.41-1.97,3.01c-.21.68.95.72,1.48.49,1.68-.76,15.05-14.58,17.02-16.98.92-1.12,7.36-9.2,6.48-10.01l-13.97-2.53c-7.39,5.32-11.99,15.5-18.37,21.19-2.61,2.33-7.43,4.75-10.66,6.34,8.71-7.41,17.05-15.35,23.98-24.52.57-.76,2.81-3.77,2.03-4.48-.5-.45-3.33.97-3-.99,5.53,2.16,10.01-3.44,11.99-8-3.26-.04-7.04-4.47-10.03-3.62-1.75.5-2.83,2.6-4.02,3.1-1.31.56-2.66-.42-3.97-.04-2.53.73-4.97,4.24-7.97,4.56l1.99,1.47,10.99,2.51c-2.68.65-5.22-.72-7.61-.91-1.54-.12-2.89.97-3.82.95-.72-.02.1-2.62-3-2.05-2.34.43-4.32,3.44-6.65,4.48-1.15.51-2.41.32-2.92.54,1.57-1.31,3.27-3.18,4.98-4.5-6.95-5.41-12.94,2.17-14.97,8.5,3.22-1.49,6.75-2.57,9.99-4-4.68,3.9-10.83,4.68-12.75,6.25-.59.48-4.92,8.13-4.25,8.75l5,1c-1.92.19-5.46-.55-6.8.21-.7.4-5.67,10.87-6.1,12.4-.5,1.79.54,1.59,1.9,1.39-1.12,1.19-1.96,3.01-3.51,3.99-2.06.43-1.7-.98-1.43-2.43.54-3,7.55-15.88,6.95-16.55-5.02,0-12.88-3.26-17.45-2.96-3.37.22-13.94,5.41-19.51,6.49-22.37,4.35-46.07-7.91-69.26-6.81l-17.77-4.71,22.48,4.01-.97-2.03,19.48,2.01c-1.59-2.52-4.97-3.35-7.35-5.14-.93-.7-3.15-2.02-.17-1.84,11.06,9.74,21.89,6.84,34.73,2.69,1.05-.34,3.02-.25,2.78-1.69-14.13-1.13-27.67-6.28-41.99-5.02l1.99-1.98-5.52-.99c-2,2.39,2.66,2.51,3.52,4.49-2.88.87-5.18-3.3-8.57-4.43-6.52-2.18-29.15-4.51-36.95-5.05-.96-.07-3.12-.51-3.47.48,3.82,4.36,6.84,8.08,11.99,11.01l-1.99,1.98c.65,1.89,8.96,7.59,7.5,10.51l-7.5-6.99,2.5,7.99c-6.87-5.23-10.39-18.38-20.5-17.01-.38-2.09,4.03.24,2.99-2.48-.7-1.83-15.31-9.11-15.99-8.5,1.23,4.38,7.67,5.49,7.7,10.01,0,.91,1,2.83-1.18,1.97-2.63-1.04-6.14-5.6-8.6-7.4-2.35-1.72-11.16-8.3-12.96-9.04-1.66-.68-3.22-.68-4.96-.53-.33,2.52,2.45,3.22,3.43,5.06.75,1.42.61,3.38,1.35,4.65,1.45,2.49,5.39,5.31,4.72,8.28-4.84-3.17-7.76-14.7-11.95-17.05-3.13-1.75-6.47-.18-9.55-1.94l1.98,5c-3.88-3.54-8.03-7.33-8,1-1.68.45-.46-1.95-1.58-2.09-1.81-.22-3.94,2-6.42.64-1.7-.93-2.96-7.19-8.04-2.11-2.34,2.35-12.4,25.41-14.63,30.37-3.74,8.32-6.3,17.21-10.81,25.18l-.65-3.56,24.14-53.42c-7.8.86-17.02,2.47-22,8.98l12.52-1.97.48,1.98-16.99,1.51c1.94-9.52,24.93-10.44,27.09-12.91.76-.86,1.07-1.86.98-3-3.54-1.84-5.08-5.85-6.07-9.59,2.1,2.03,3,3.72,4.71,5.73.62.73-.03,1.89,2.29,1.26l-.99-3.98,1.98,1.99c-.32-4.73-.27-8.35,3.01-11.98l-7.04.45.03,4.53-4.99-4.99c.09,2.25.42,4.84.99,6.99-1.17-1.13-.76-2.37-2.49-1.99-4.41,7.02-9.2,12.83-10.5.48-.31-2.96,1.5-8.98-2-8.5v-.97c3.5,0,2.49-3.57,1.86-5.89l-14.86-3.12,1.99,3.5c-.62,1.71-3.83-1.34-3.99-2.02-1.15-5.14,14.56,1,16.99.51l-4.99-4.99,5.99,1.99c.75-2.72-2.66-2.34-3-3.51-.9-3.06,3.28.65,3.99-2.02,1.26-4.74-10.6-11.32-14.98-8.46l4,4.98c-3.01.27-3.66-3.74-6.52-4-3.13-.29-8.1,1.97-11.49,1.5,1.25-4.3,7.26-1.84,11.05-2.94,4.87-1.41,2.7-4.38,2.96-4.55.56-.36,2.94,1.71,4-.51-2.63-1.73-6.5-3.99-6.99-7.49,2.68,1.13,6.01,7.22,9.08,6.55,2.04-.44,9.1-9.18,9.82-11.17.66-1.83-.44-1.19-1.18-1.61-5.69-3.26-13.01-5.23-17.72-9.77l19.55,8.99c3.33.43,2.11-6.39,1.45-8l2.98,1c.68-2.32-6.22-7.78-4.99-8.99,1.55-1.52,3.97,1.58,4.49,2.99,2.87-1.25,6.74-16.8,7.45-20.56.59-3.12-4.25,1.39-2.93-1.91,1.18-2.95,4.73-6.21,4.92-10.09.26-5.5-3.01-13.58-2.94-19.42l-2.98,3.99c2.28-5.72,1.7-10.18,1.99-15.99.93,2.07.55,4.6,1.99,4.99l2-5.99-2.07,11.49,3.58,17.5c6.41-16.1,6.19-32,4.48-48.99l-1.98,2.99-.02-6.99-2.98,3.99,1-4.98-4.04-1.56c3.45-8.39,8.98-10.67,7.03-20.96-.74-3.91-8.11-3.24-8.87-.86-.38,1.2-1.05,9.69-1.18,11.82-.43,7.38-.14,16.07.04,23.54,0-.18-1.04-1.58-1.07-3.38-.22-10.68.13-21.35.94-31.98-.75-2.24-5.16-2.17-6.88-1.15-3.11,1.84-4.5,23.91-4.99,28.52l-1.98-1.02c.02,1.92,1.17,3.57,1.12,5.54-.05,1.81-1.92,1.34-2.11,2.15-.79,3.45.36,9.35-1.03,13.32l-1.98-1.99c3.48,8.48-7.83,28.04-5.5,34.92.77,2.28,4.21,8.38,7.04,6.14,1.99-1.58,11.16-26.8,12.45-31.06-2.27,6.96-6.33,17.94-7.98,24.52-.14.55-.29,1.63.48,1.47,2.15-1.67,3.09-4.26,4.65-6.35.7-.93,2.02-3.14,1.84-.17-2.15,5.56-8.65,10.27-11.22,14.83-1.32,2.36-1.15,6.8-1.9,7.53-.12.12-1.39-.92-2.86.56-1.56,1.57-9.26,13.44-9.8,15.37-.33,1.19.82,2.71.62,3.09-.11.21-1.96.51-2.73,1.71-1.46,2.3-2.61,5.9-1.11,8.41l-2.9-.08c.49-4.03-3.71-2.93-3.09-5.89l6-5.5c-.38-1.62-20.6-11.28-23.75-13.25-1.44-.9-2.06-2.37-1.25-3.26,1.01-1.11,22.54,14.85,25.98,14.99,2.74-14.19,9.59-29.74,5.02-43.99l2.98,4.99c4.34-25.34,11.29-50.48,14.02-76-14.3.16-28.47-2.89-42.56-5.08l-2.43,2.08c-.71-4.45-8.81-3.33-12.26-4.24-16.38-4.32-35.2-13.33-39.31-31.69-.38-1.71-1.54-7.1.55-8.05,2.13,33.31,36.23,37.63,62.68,41.83,5.03.8,32.1,5.34,34.4,3.73l.94-6.57h2.99s-1,7-1,7l16.89-1.1c.76-7.47-1.83-14.97,3.1-21.35-.55-2.09-8.67-5.03-10.75-5.37-3.18-.51-8.62.97-12.45.51-1.02-.12-3.99-.21-3.78-1.68,4.4-1.32,9.02.66,13.57.07,1.91-.24,1.35-2,1.86-1.97,1.31.08,2.84,1.1,5.06.98,11.57-.61,8.53-5.56,9.34-14.95-7.26-2.64-13.62-6.66-19.83-11.15l4.98,11.52-1.47,1.46c-3.99-.87-2.88-6.08-5.02-6.98l-1.48,1.99c-1.34-6.28-2.44-11.86-9.98-12.04v-6.44c-9.14-4.36-20.02-4.8-27.03-13.02,2.18-1.54,4.7,2.28,6.65,3.35,4.24,2.32,10.64,6.03,15.34,4.66l-7.99-10.07-4,1.56c4.03-11.52-11.94-16.45-16.52-25.99-1.74-.72-2.84,3.89-3.04,4.94-.39,2.02-.97,5.5-.46,7.36.27.99,2.02.94,2.46,1.74.67,1.21.33,2.84.89,3.64,1.33,1.91,5.66,4.23,5.66,7.31-8.6-5.48-10.74-13.38-11.98-22.99l2.98,2c.39-3.9,2.93-5.94,1.02-10l2.98,1.01c3.26-2.38-4.21-15.64-5.31-19.23-.41-1.35-.37-2.75-.68-3.78,2.75,1.78,5.66,15.45,7.24,16.83.64.56,2.5-.04,2.74.19s-.65,3.06-.23,4.69c.48,1.83,9.9,19.06,11.21,20.56,1.01,1.17,2.47,1.88,4.04,1.72.55-.54-3.6-12.72-3.83-14.76-.24-2.21.96-4.07.74-5.63-.81-5.56-3.26-10.84-2.91-16.6l-3.99,1.99c-.29-2.37,2.44-3.36,2.71-5.61.57-4.79-3.02-14-2.73-19.39l-4.49,3.03c-1.84.47-1.97-1.5-2.22-2.77-1.11-5.6-.48-13.49-.28-19.26h-11.99c-2.86,12.59.41,23.15,3.99,35l-4.99-10.99c-.51,8.02.04,15,3.01,22.48l-2.01-1.48c-.59,2.94.76,5.69.98,8.51.09,1.1.74,3.73-.98,3.48-2.09-19.56-7-37.95-5.11-57.9-13.18-3.03-27.77-5.26-40.41-10.09-22.39-8.54-22.65-20.81-22.53-42.55.02-3.57,2.15-5.92-.95-9.45,4.19,0,3.54,4.85,5,7.99-.52-.16-1.02-.67-1.5-.97-2.22.34-1.72,13.92-1.48,16.46,1.32,14.18,7.98,21.16,20.72,26.28,4.48,1.8,39.79,11.78,41.26,10.24-.72-2.15.99-6.61.46-8.05-.71-1.92-11.31-11.26-13.81-10.79-1.58.29-2.34,3.44-4.64,2.83-.05-1.46,4.23-2.94,2.01-4.5-2-1.41-18.76-6.23-21.51-6.28-2.15-.04-9.03,3.16-10.03,4.76-1.2,1.94.68,5.56-1.46,6.02-.77-2.25.84-5.89.59-7.55-.18-1.17-2.42-1.84-2.7-4.93-.35-3.86,1.97-8.56,2.11-12.51,1.88-.2.81,2.1.71,3.2-.37,3.81-1.53,6.8.29,10.8l11.55-2.86c1.31,2.82,5.95,2.53,9.2,3.6,4.84,1.58,9.5,3.45,14.23,5.26l-10.45-14.06c-5.11-2.4-2.34-6.19-8.54-6.93.38-.19,2.02-1.27,1.99-1.47l-8.03-13.51-3.95.98.57-5.05c-1-1.29-5.73-1.04-7.89-2.14-.3-.16-4.36-3.69-4.46-3.97-.12-.34-.2-7.05,1.76-6.83-1.25,7.98,3.98,6.95,8.51,10.99.74.16.67-1.02.48-1.48-1.31-3.18-7.47-10.84-9.67-13.89-.5-.69-.36-1.78-.33-2.63l-2.98,1.99c4.08-9-8.45-16.29-9.8-22.79-.4-1.93.76-3.57.36-5.25-1.41-5.94-4.65-11.64-5.05-17.97-1.4-2.73-5.98,2.42-6.13,3.48-.38,2.63,3,6.58,2.6,9.53l-3-8c-2.97-.57-2.87,4.33-5.98,5,2.05-5.37,7.47-8.33,6-14.99l1,4.99c.14.19,3.6-1.78,4.07-2.42,1.14-1.55,2.62-14.66.27-15.43-1.87-.61-5.84.95-6.34-1.14,5.45.44,10.25.54,10.99-6.01h-3.98c6.14.22,4.82-4.57,8.98-7l-.99,3.99c3.72-.62,6.09-2.97,9.99-.98.08,2.36-3.02-.16-3.84.17-.12.05-.11,1.39-1.39,2.12-1.07.6-4.63,1.37-4.84,2.34-.87,4.09,3.89,8.17,7.45,9.27,2.57-.43,5.5-10.18,5.64-12.55.08-1.4-6.17-4.03,1.99-5.38-.57-3.71-3.7-4.85-1.99-8.98l8.97,4.99,2.01-2.99-.99,3.99c3.88,1.56,4.97-1.62,5.77-1.91,7.55-2.73,16.96-4.15,21.22-11.58-6.76-.11-16.75.21-21.99,4.5l5.5-7c.68,3.38,9.2,1.25,12.72.72,6.66-1,14.57-1.7,18.78-6.72-.3.43-.45,2.19-1,2.99,7.06,1.6,8.35-2.62,13-5.99-.27,1.06-.51,2.01-1,2.99l4.01-.98-1.02,1.98h10.01c1.02-.9-4.98-6.37-5.92-6.61-3.17-.79-3.73.92-6.07,2.62.27-1.06.54-2.01,1-2.99-2.57-1.82-11.43,3.68-13,5.99ZM615.73,160.32c-2.85-3.04-11.76-3.08-14.72.25l13.48,13.48c2.84-2.5,3.58-11.23,1.24-13.72ZM570.99,221.06c9.61-3.3,14.61-11.63,21.47-18.02,5.76-5.37,23.77-17.66,20.8-26.66-1.76-5.34-11.67-15.9-17.51-15.12-8.08,1.08-11.24,6.09-16.85,10.21-5.13,3.78-12.37,6.68-14.91,13.1-1.66,4.22,7.18-2.89,7.97-3.11,2.8-.8,4.33.72,6.32.42,3.02-.44,8.42-6.19,13.55-3.68,3.91,2.46-3.08,23.02-7.36,25.85l6.05-15.94c.72-4.31,2.04-9.85-3.81-8.87-1.24.21-7.7,3.94-8.23,4.83-1.94,3.23.58,22.3-4.51,27.54l2,.95c-2.56,2.17-4.86,4.94-4.99,8.5ZM589.99,215.06l2.98-1.51,12.01-18.48-15.99,13.5,2.07,1.11-1.07,5.38ZM584.99,153.05l6.42,1.93c4.22-4.03,2.32-9.71-1.92-12.9l-4.5,10.97ZM586.68,161.76c.87-.97,2.99-5.97,2.31-6.68l-4.05-.6-6.94,12.58c.34.37,8.3-4.87,8.68-5.3ZM588.98,211.07c-.2-.28-4.83,3.26-5.53,3.96-1.76,1.78-10.96,14.02-11.97,16.03-.9,1.77-.18,1.89,1.03,3.01,3.27.85,15.8-14.09,16.42-17.56.31-1.75-.02-3.67.05-5.44ZM584.98,149.07c3.69-6.84,3.5-23.11-7.98-18.99l9,7.49-2.03,1,1.67,4.52c-.78,2.81-7.61,4.01-.65,5.97ZM586.01,223.08l-10.94,12.63c-.13,1.73,5.64,6.14,6.53,6.28,3.66.55,4.1-15.68,6.37-18.43l-1.96-.47ZM572.08,138.92c4.1.81,8.17,8.98,11.91,4.63,1.14-3.56-9.65-9.41-10.97-8.46l-.94,3.84ZM581.99,152.06l-2.58-4.83-10.41.84,7.95,3.53,5.04.45ZM566.99,173.06c2.63,2.74,13.96-17.33,14.99-18.98l-14.92-3.95-24.08,40.42c1.1,1.2,1.26,1.94,3.01,1.04.57-.29,8.65-7.54,9.53-8.47,2.13-2.25,9.14-13.83,9.96-14.07.63-.18,1.69.13,2.49.03l-.99,3.99ZM569,231.07c.82.64,9.92-10.98,8.98-12-4.02,3.35-12.33,5.31-8.98,12ZM521.99,247.07c-1.65,3.74-3.44,6.97-2.01,10.99l-2.98-2.99c-.95,2.99-1.53,5.44-.06,8.42l2.04.57,4.01-6-1.99,4.99c1.68.17,3.2-.06,4.74-.75,1.72-.76,13.81-15.57,17.24-18.76,6.39-5.95,13.79-11.01,20.59-16.49l-1.56-6c4.92,6.55,5.54,3.64,8.24-2.35.42-.94,2.19-5.44,2.51-6.38,3.02-8.79,4.91-17.9,4.23-27.27-6.47,4.16-20.95,12.25-22.56,19.98-.34,1.62.81,3.57.56,4.02-.06.11-1.58-1-2.47-.09-.54.56-7.08,12.51-7.51,13.6-.57,1.42.16,1.62,1.45,1.46,6.41-.78,14.06-5.37,20.53-7.51.97-.32,3.21-1.36,3.01.52-6.54,4.31-20.21,5.79-25.94,9.56-3.32,2.18-6.31,10.48-9.55,13.45-.86-4.02,5.28-8.48,6.49-11.51.53-1.33-.12-1.72-1.43-1.43-6.55,1.46-12.1,14.66-17.56,19.95,2.88-6.51,7.76-11.71,11-17.99-2.64-2.38-12.83,13.49-13.84,15.65-.86,1.83-1.51,3.21-1.15,5.34,2.14.41,2.47-1.52,3.99-3ZM566.99,242.07c2.11-2.91,8.36-7.07,2.02-7.99l-5.01,6.99c.06-3.11,4.24-5.6,4.6-8.46.67-5.41-4.23-.38-5.6,1.46l2.99-5.5c.16-.75-1.02-.67-1.48-.48-4.64,1.91-24.57,19.96-28.49,24.51-.81.95-5.71,6.77-5.02,7.47,8.28-3.75,19.18-6.31,24.49-14l1.98,1.99c1.97-.91,3.23-4.63,4.49-5.42.44-.28,3.45-.06,5.03-.57-.44.6-2.23,2.82-2,2.99,2.01-.46,12-.72,11.98-2.49l-3.5-4.5c-2.87,1.09-3.12,2.91-6.48,4ZM560,195.07l15.98-11.99c-6.43.91-15.11,4.77-15.98,11.99ZM557,253.06c.51.48,11.26-3.79,12.96-4.53,1.72-.75,5.2-1.83,6.03-3.46-5.39.32-12.47,1.42-16.72,4.77-1.2.95-2.73,1.14-2.27,3.22ZM556.99,128.07c-4.72-1.27-4.84-2-9.5-2h-24c-.17,0-1.57,1.35-1.5,1.99,12.44.66,24.49,4.7,36.99,3.02l-3.99,1.98,15.36,4.09,1.63-3.07c-5.78-1.49-10.1-2.74-15-6.02,5.08,1.37,8.73,2.4,14,.99-5.03-6.11-11.09-4.69-17.99-3.98.48,1.13,2.67,2.11,4,2.99ZM569.98,115.07c-.92-4.95-8.02-5.33-11.99-4.99l11.99,4.99ZM506.99,186.06l21.52-5.97c1.49-2.93,2.86-6,4.04-9.06s1.26-3.59,2.84-7.07c2.09-4.59,8.45-19.89,12.05-21.94,9.93-5.66,18.08,12.5,22.55-2.93-6.34-2.74-12.95-4.52-19.77-5.74-2.96-.53-5.91.11-8.62-.38-8.95-1.6-24.88-6.37-33.1-6.4-5.98-.03-18.73,6.4-25.3,8.23-7.75,2.16-17.25,3.15-25.2,5.28l1.99,1.98c-5.89.49.19,10.68,2.17,13.35,2.53,3.41,6.22,4.29,7.56,5.93,2.96,3.62,2.76,3.85,6.67,7.84,2.71,2.77,3.82,6.05,5.64,9.17.65,1.12,2.56,1.2,1.97,4.71,1.56-.13,1.93-4.39,1.99-5.51.24-4.04-2-9.83,1.99-12.48-.56,14.18-4.14,28.88,2.02,42l2.01-1.5,1.97-46.49c2.19-.37,2.8,1.38,3.5,2.99,1.45,3.36,4.55,22.31,5.51,23l7.99-2.99-4,3.98ZM555,120.06c4.57-1.08,11.42,2.74,13.99-1.98l-21.99-4,9.99,3-1.99,2.98ZM543.99,178.07c-1.51-.87-.45-2.22-1.99-1.99l-3.01,9.99c5.08.04,4.57-4.12,5-7.99.64.37,1.22.89,2,.49,8.43-8.29,11.82-20.67,20-29.48-.77-.71-6.03,3.64-7.01,4.48-3.7,3.16-13.84,12.96-14.76,17.24-.54,2.51.03,4.92-.23,7.27ZM552.99,193.06c5.51-1.38,8.6-5.8,10-10.98-1.43-1.38-9.37,9.26-10,10.98ZM561.99,148.05l-.62-2.05-9.41-3.53-2.96,11.59,3.99-.5c-3.44,2.69-6.27,4.53-5.98,9.5l11.99-11.5-3.51-.5,6.51-3.01ZM523,122.07c-.27,1.37.35,2.41,1.67,2.82,2.52.8,13.4.36,16.83.18,2.4-.12,4.2-1.51,6.12-1.7,2.74-.27,7.2,1.85,10.39-.81-11.75-4.16-23.07.27-35.01-.49ZM540.99,219.07c.08-.65.35-2.05-.5-2l-9.5,10.99c1.95.34,2.69-.24,4.03-1.46,1.14-1.04,4.34-5.57,5.97-7.53-.38,3.28-2.33,4.49-4,6.99,1.71.03,4.49-.03,5.75-1.25,2.82-2.72,8.06-15.46,9.24-19.74-4.04,4.44-7.12,9.38-10.99,14ZM546,207.07c3.45-2.09,5.81-4.69,4.98-9-4.66-.78-5.38,5.44-4.98,9ZM546.74,156.81c2.17-2.41,1.61-9.66,3.25-12.74-1.82-.57-4.32,3.61-4.84,4.65-1.45,2.92-2.51,6.01-2.15,9.33.42.45,3.24-.69,3.74-1.25ZM527.99,264.06c5.77-2.55,13.73-4.38,19.05-7.44,1.5-.86,3.35-1.31,2.94-3.55-6.81,4.46-15.86,5.99-21.99,10.99ZM531,223.07c5.67-5.12,13.23-10.77,13.98-19l-3.41,3.08-10.57,15.92ZM526,222.06c3.4-2.91,20.6-22.62,17.98-25.99-1.75,1.57-4.54,2.91-6.04,4.49-3.5,3.72-4.48,5.95-8.89,10.04-3.34,3.1-5.84,5.3-5.05,10.47l1.84-.77.17,1.75ZM543.98,260.08c-3.09.01-20.87,7.02-20.97,8.49-.22,2.94,7.97-.7,8.97-1.01l12.01-7.48ZM541.99,162.07c-5.25.79-10.78,12.2-10.97,16.61-.18,3.91,2.06,4.31,4.42,1.32,3.86-4.9,8.31-11.72,6.56-17.93ZM528.99,205.06c2.1,1.96,13-12.63,11.99-15.99-2.53-2.81-11.16,14.62-11.99,15.99ZM522,108.06c2.41.19,4.03,2.93,6.48,2.95,1.8,0,7.26-3.17,8.51-4.92-3.44.08-6.93-.24-10.38.11-1.01.1-4.7.4-4.61,1.87ZM528.99,197.06c1.65,1.58,10.61-10.33,6.48-11.98-1.84-.74-1.67,1.58-2.28,2.65-1.7,3-2.57,6.32-4.2,9.33ZM515.16,105.9l20.83-2.82c-7.25-1.72-14.71-1.2-21.99,0l1.16,2.82ZM520,208.07c2.45-1.72,5.92-5.7,7.21-8.28.92-1.84,4.88-11.85,5.35-13.67.76-2.94-2.13-4.56-3.83-1.78-3.62,5.9-5.42,17.09-8.73,23.74ZM503,364.07c1.49,1.44,11.01-7.37,12.5-8.99,14.47-15.79,15.02-38.77,12.44-58.95l-10.81,1.09c1.15,9.64-3.16,19.45-4.09,28.5-.67,6.53,2.26,18.07-3.96,22.95-2.16,1.7-5.37,1.24-7.04,4.14l.95,11.27ZM504,193.07l3.08,18.44c1.49,2.33,6.93,1.24,9.24.39l11.66-29.84c-8.02,1.05-15.57,3.83-22.92,7.09l1.92,9.9-2.98-5.99ZM517,217.06c1.62,1.73,9.17-8.55,7.98-10.99-1.75,1.01-9.13,9.77-7.98,10.99ZM506.99,118.07l3.99-1.99c-6.02-.23-12.12.27-18.02,1.47-1.08.22-3.23.06-2.97,1.51,5.68.02,11.33-.62,16.99-.99l-9.99,2.01c.39,1.45,5.29,1.93,6.51,1.97,6.98.28,9.95-2.21,16.49-2.99-2.37-3.76-8.91-1.26-13-.99ZM510,232.06c3.39.12,7.4.1,9.98-2.49.09-2.51-10.71-1.43-9.98,2.49ZM472.98,655.08c1.47,7.48,4.26,15.37,5.77,22.72.47,2.27-.58,8.62,1.69,9.02,8.76-.73,35.56-14.53,36.39-23.45.37-3.94-22.4-13.81-26.36-16.03-4.84,4.27-11.17,6.72-17.49,7.73ZM511,244.07c.06-.13,2.36,1.45,2.92-.56l.07-3.43c-6.27,1-5.18,4.71-4.98,9.99,4.24-1.09,1.47-4.84,2-6ZM512.96,296.05l1.02-15.98c-1.45-.01-1.93,3.05-2.28,4.21-.73,2.46-2.45,8.14-2.7,10.32-.31,2.67,2.45,1.18,3.96,1.46ZM483.99,97.05c.86.89,20.3,6.3,21.97,5.53,1.35-.62,7.41-6.75,6.92-8.81-.29-1.11-3.4-3.88-4.54-4.56-13.05-7.72-49.77-4.5-65.9-5.1-4.28-.16-8.86-1.89-13.46-1.03,5.33,7.04,10.38,4.68,17.55,4.95,2.71.11,5.12,1.17,7.94,1.12,8.45-.15,18.18-6.98,26.49-.56,2.56,1.98,2.04,5.43,5.02,5.49.53,1.38-4.02.88-1.99,2.97ZM510.98,312.07c-.9-5.07.09-9.27,2.01-13.99h-4s-.01,4.99-.01,4.99l-2.98-1v3s1.98-1.01,1.98-1.01c-.13,2.85-.06,6.61,3,8.01ZM511.99,109.05c.34-2.45-.05-1.57-1.39-2.09-3.51-1.37-7.17-1.42-7.61,3.1l8.99-1.01ZM507,346.07c5.08-2.27,4.21-8.34,4.98-12.99l-2.98,3.99c-.23-2.73,1.58-4.98,1.9-7.57.78-6.25-1.83-16.46-5.9-21.42.31,3.35-3.07,8.09.98,10l1-4-.98,9c1.13-.45,2.28-2.02,1.99.47-.43,3.71-3.53,6.01-4,9.51l3,.99c-3.85-.76-3.98,2.73-5.2,3.72-.27.22-1.54-.49-2.3.2-1.29,1.16-2.05,3.32-3.37,4.6,0,1.34,7.46,5.44,8.84,4.46l3.03-6.96-.98,5.99ZM500.28,232.74c3.99,1.75,6.49-1.25,7.71-4.66l-9.9-.92-1.1,3.9c2.32-.97,3.02,1.56,3.29,1.67ZM506.98,227.07c3.16-4.32-10.93-9.81-11.99-8.99,1.56,7.8,5.39,7.24,11.99,8.99ZM505.99,215.06l-4.01-25-2.98,1c-.79-2.58,2.45-2.46,2.85-3.16,1.08-1.89-3.98-14.28-6.85-15.83l-1.8,40.29c2.68,5.59,7.86,3.56,12.79,2.71ZM501.99,279.07v17c2.87.46,1.66-.61,2.13-2.31,1.04-3.74,1-11.9-2.13-14.69ZM500.64,325.74c-3.26.36-4.53,10.38-2.15,10.31,5.29-3.91,7.54-10.74,5.49-16.97l-3.34,6.66ZM501.99,106.07h-14c-.22,1.47,1.75,1.38,2.8,1.69,3.65,1.07,8.95,2.63,11.2-1.69ZM499.49,125.07c-5.75.7-13.9,0-20,0-1.09,0-1.17,3.34-2.15,4.08-3.66,2.79-15.95,3.8-19.32,6.44-1.84,1.44-1.08,2.22.44,3.36,14.11-3.79,28.82-6.26,41.88-13.04,4.06-3.95.27-.99-.85-.85ZM499.98,269.06c3.2-7.36,1.44-9.44-.55-15.93-1.07-3.5.32-7.17-4.43-9.06,1.49,2.31-.43,10.62-.01,10.99.29.26,2.36-.66,3.05.64.25.46,1.66,6.28,1.76,7.15.23,2.08-1.8,5.61.18,6.2ZM496.98,363.07c-2.07,9.89,8.52,5.24,4-3.01l-2.98,1.01c2.19-5.09.19-9.28-4.5-11.99-4.87,4.52-1.54,9.56.45,14.6l3.03-.6ZM497.98,379.07c-1.6-1.21-7.67,9.03-7.95,10.55-.65,3.6.2,6.34,3.44,8.17,4.95-1.96,7.82-5.14,7.51-10.73l-1.98,1.99c.82-4.05.69-6.25-1.02-9.99ZM477.99,104.07h22l-16.7-5.81c-1.64-.22-6.31,4.91-5.3,5.81ZM495.98,303.07l-8.83,4.66c-.19,2.87-1.14,23.37,2.34,23.32,8.84-8.33,9.62-16.54,6.49-27.98ZM493.98,337.07l3-13c-2.82,3.97-11.26,10.76-3,13ZM475.99,124.07h18.5c.23,0,1.83-1.73,1.5-1.99-6.1-.37-15.78-3.63-20,1.99ZM485.99,279.07l1.04.58-.03,24.42c1.88.58,8.44-1.77,8.71-3.45l-6.73-28.55c-4.14-1.32-2.56,3.26-2.98,7l-1.04-.58.04-6.43h-8.01c-.11,5.56-3.33,35.87,1.57,36.97.66.15,4.87-1.87,5.42-2.47,2.95-3.2.82-17.41.96-22.04-.17-1.9.86-3.75,1.05-5.46ZM494.98,633.07c-.14-8.77.57-17.47-2-26l-8.97,3.5,2.98,3.49-7.99-2.99c-1.97,1.99,13.67,19.67,15.99,21.99ZM475.98,617.07c-5.09-7.82-10.23,4.24-8.5,7.97,1.25,2.7,17.69,17.06,20.83,18.27,4.46,1.72,5.93-4.77,6.24-8.22l-16.57-22.02-1.99,3.99ZM493.98,270.06l-2.49-22.99-5.06,6.06,4.06,15.94,3.49.99ZM472.99,108.08c4.8,4.77,12.33,10.75,19,5.98-.14-1.48-1.48-1.56-2.54-1.95-4.82-1.77-11.38-2.53-16.46-4.03ZM480,567.07c-1.01,1.35,5.33,16.89,6.48,16.98,3.19-1.65,6.51-5.5,5.36-9.27l-11.84-7.7ZM470.11,592.18c-.73,5.75,4.18,16.56,11.14,15.71,2.87-.35,7.21-4.16,10.75-3.84l-7.6-16.91-14.28,5.04ZM487.79,375.83c.26-.15,3.12-4.55,3.07-5.09-.06-.66-3.57-7.29-4.87-5.67.52,4.48.94,6.82-1,10.99.93-.05,1.96.25,2.8-.24ZM484.99,341.07c-1.1,1.41-1.78,1.59-3.07,2.57,1.03,1.75,1.49,6.73,4.56,5.43,2.32-.99,2.54-7.53-1.49-7.99,3.01-3.87-.7-12.98-3.99-16,.28,6.33-3.93,9.48.15,15.86,1.23.49,2.61,0,3.84.14ZM469.63,651.44c.66.51.87,2.24,1.92,2.48,2.91-.17,17.36-4.66,16.43-8.34l-21.99-18.51-5.67,15.52c2.62,3.46,5.87,6.22,9.3,8.84ZM474.99,411.08c3.14,5.09,9.8-.49,12-4l-12,4ZM485.98,324.06c-.09-4.91.29-10.1-.4-14.95-.15-1.06,1.11-1.48-1.09-1.06-.83.16-5.6,2.15-5.49,2.5l6.98,13.51ZM484.99,270.07c.23-3.63-.07-7.48-1.79-10.74-.34-.64-.2-2.04-1.7-1.26-.28.15-4.23,4.33-4.33,4.63-2.24,6.86,1.8,8.3,7.83,7.37ZM484.82,405.9l.17-3.83c-.75-.8-13.7,5.22-10.99,7.99l10.82-4.16ZM483.98,192.07c.19-4.07-1.74-10.21-3.58-13.91-.63-1.27-7.73-12.04-9.4-10.09l.57,7.97,12.42,16.03ZM482.99,207.06c1.08-5.98,1.98-16-5.99-16.99l3.19,15.3,2.8,1.69ZM483.9,585.98c.74-1.05-5.15-16.82-6.4-17.92-1.32-1.16-10.86-2.65-11.51-2l3.01,25.01,14.9-5.09ZM481.98,96.06c.83-11.93-13.45-8.41-20.99-6.98l5.99,1.98-8.99-.99c-.49,3.07.77,1.61,2.49,1.97,7.12,1.49,14.37,2.59,21.49,4.03ZM448.99,97.05c3.44.02,6.04,4,8.75,4.77,1.94.55,10.88,2.28,12.75,2.33,5.31.13,6.1-2.18,9.49-5.59.44-2.26-.97-1.27-2.34-1.62-4.79-1.23-19.18-4.88-23.2-4.73-2.21.08-5.69,2.3-5.45,4.85ZM468.99,111.07c-.55-2.74-.57-4.4-4.59-4.98-3.32-.49-4.57,1.05-7.41,2-1.77,2.16,6.78,4.48,7.98,4.6,2.64.27,2.76-1.25,4.01-1.62.17.83-.33,1.98.1,2.88l10.9,2.11c-2.93-2.82-6.9-6.21-11-4.99ZM479.98,330.06c-.03-3.4-.67-6.84-1.33-10.16-.26-1.31-.11-4.84-1.66-4.83.06,4.37-.47,8.57.7,12.83.49,1.77-.32,2.6,2.28,2.16ZM474.98,376.07c2.3-6.39,2.28-12.25,2-19-5.57,3.17-1.69,11.93-4.03,17.48l2.03,1.52ZM465,559.07l.93,5.56,11.07,1.42c.39-3.14-11.23-7.81-11.99-6.99ZM476.99,687.07c1.26-1.25-3.51-27.97-5.47-30.04-2.57-2.7-11.91,2.2-15.52,2.54-1.36,5.12-6.45,12.93-7.57,17.47-.28,1.12-.84,1.91-.01,3.06,1.79,2.5,27.26,8.26,28.58,6.96ZM444,687.05c5.93.92,26.54,9.58,31.03,6.55l1.97-5.02c-3.62-.36-7.64-.1-11.26-.76-4.51-.83-15.51-5.82-18.3-5.69-2.43.11-3.9,2.73-3.44,4.92ZM475.99,330.06c-1.42-4.36-1.89-9.84-3.54-13.99-.64-1.61.1-2.45-2.45-1.99,2.82,4.63-.55,14.97,6,15.98ZM474.99,561.06l-15.98-46.99,5.18,41.31c.6,1.63,10.3,6.19,10.81,5.68ZM453,135.06l20.99-6.49c-5.38-5.5-13.87,2.75-20.4,3.41l-.59,3.08ZM472.99,273.57c.88-9.04-.65-19.32,0-28.5l-2.87,11.63-.14,7.38c-1.38-.48-2.02-2.02-2.02.51-.02,4.69,2.79,9.73,3.04,14.48.95.05,1.94-5.01,1.99-5.49ZM472.83,357.91l.15-11.85h-2.99c.04,4.39.34,8.77-1,13l3.84-1.15ZM464.99,378.07c-.53,2.9-.84,5.21-1.99,8,6.32-.45,7.97-3.65,8.94-9.55.78-4.72.34-11.44,1.05-16.44l-8.88,3.47c2.14,3.81,2.31,8.75,1.93,13.04-.13,1.41-1.02,1.4-1.04,1.49.49-3.9-2.27-9.8-2.01-14-8.89-.56-9.97,11.17-19,11.01l.62,2.06c5.89,1.15,7.75,7.58,14.38,5.94l-2.99,4.99c1.5.03,3.65-.19,4.74-1.26.35-.34,4.19-8.25,4.26-8.74ZM455.99,419.07c1.06,6.6,14.18.52,16.99-3l-16.99,3ZM471.98,340.06c-.04-3.57,1.35-9.58-3.98-9.99-.31,1.75.25,3.11.78,4.71.38,1.14,1.94,4.88,3.21,5.28ZM467.98,257.06l3-25.99c-1.48-.07-1.74,3.53-1.88,4.61-.75,5.85-2.35,12.34-2.11,17.9.05,1.22-.77,3.71.98,3.48ZM468.97,190.06c2-1.31.37-11.58-1.99-13.52l1.99-.49c2.68-2.67-6.15-3.13-5.95,2.36.08,2.26,2.05,14.18,5.94,11.65ZM467.99,306.07c2.88.51,2.1-1.23,1.98-3.45-.27-5.25-2.23-11.19-2.44-16.59l-2.53-7.95c-1.3,9.64,2.06,18.58,2.99,27.99-2.28-.41-.45-6.45-2.99-6.99,0,4.8-.4,10.79,2.49,14.97,2.03-1.61.74-5.58.5-7.98ZM468.99,655.06c1.65-1.5-10.16-11.02-10.99-9.99,1.03,4.51-2.24,7.65-2,11.99l12.99-2ZM465.98,228.07c1.01-5.07,4.9-12.89-.98-16,.2,4.9-1.67,9.55-1.01,14.52.18,1.37.54,2.95,1.98,1.48ZM455.99,353.07c.26.13,1.08-.26,1.75.23.86.62,1.33,3.6,3.24,3.77l1-4.99c-.22,3.74-.87,12.39,4.99,7.5-3.38-2.82-1.6-7.59-1.99-11.5-2.76-1.1-2.91,1.67-3.48,1.78-1.16.24-6.58-.41-7.51.23.33,1.13,1.39,1.91,2,2.99-3.93-2.03-5.62-2.26-10-.99-.44,3,2.63,1.88,3.61,4.95,1.06,3.34-2.11,5.92.92,8.05l9.43-3.61c.5-1.64-2.83-6.4-3.96-8.4ZM455.99,396.06c1.6,1.33,9.68-7.32,11-8.98-5.09.38-8.96,4.57-11,8.98ZM461.98,227.06l3.94-27.37-6.93-2.62.99,3-2.01.51,2.01,3.47-1.91.43c1.83,6.48,1.05,13.63,2.45,20.13.21.97.04,2.73,1.46,2.45ZM465.99,250.07v-16l-3.01,8.48c1.2,1.79-.45,8.22,3.01,7.52ZM449.17,348.23c.98-.43,2.74.95,4.24.8,2.97-.3,7.78-2.43,11.14-2.89,2.79-10.28-.46-17.34-2.58-27.07-12.94,3.48-25.22,10.27-38.99,10.02l20,6.01c-1.98,4.93,2.21,10.01-1.98,14.48,1.66,2.34,5.11,1.77,7.3.5.61-.36.66-1.76.86-1.85ZM465.99,592.07l-5.49-25.99c-4.98,8.42,2.18,17.39,2.5,26h2.99ZM464.98,197.06c.88-.96-2.1-11.79-2.74-13.8-.42-1.32.39-2.65-1.68-2.13-7.09,1.77-3.65,16.53,4.42,15.93ZM463.99,282.07v-14c-3.13-1-2.11,4.53-2.05,6.55.06,1.82.05,6.68,2.05,7.45ZM463.99,312.07v-21.5c0-.2-.93-3.9-1.99-3.49l-.06,11.54,2.05,13.45ZM462.99,555.06l-1.01-11.99-1,3.99c-1.26.36-1.73-2.18-1.9-3.58-.41-3.41.19-15.23-1.11-17.41-.11-.18-2,1.8-3.27-1.28-.72-1.75.1-3.59-.34-5.51-.61-2.63-1.89-5.27-2.3-7.8-.17-1.03-.66-2.69.92-2.41l5,14.99c-.31-8.73-1.76-17.49-3.45-26.03s-4.14-17.74-6.59-26.41c-.48-1.71-.79-2.87-2.95-2.54l1,11.99,1.98-3.99c-1.39,8.25,1.28,15.95,2.01,23.52.26,2.67-.29,2.64-1.12.11-.38-1.16-.22-3.75-1.86-3.63.08,7.16-.13,14.36-.05,21.54.07,6.08-.87,8.72-1.01,12.9-.11,3.14,2.09,8.11,2.06,11.56l5.98-6c1.98,1.78,4.97,21.84,9.01,17.99ZM397.99,322.07c1.28-5.04,12.61-21.69,17.72-22.81,3.22-.71,6.28.77,6.28,4.31v21c0,.22-1.86,1.72.62,2.38,9.82,2.61,28.72-6.8,38.36-9.94-4.18-13.62-2.77-27.88-2.99-41.93l-2.74,7.79-2.25,2.2c-.71-4.37.73-8.37,1.1-12.51.15-1.73-.89-3-.99-4.06-.04-.42,1.86-.34,2.45-2.33.92-3.08,3.98-15.17,4.09-17.74.11-2.84-1.41-5.57-1.64-8.35l3,.49c-1.53-3.98.59-14.39-5-13.5l3-.99c-2.38-9.85-1.39-20.72-3.46-31.04l-8.54-2.96c.57,9.76-12.49,6.44-19,7.01-.78,2.7,4.83,3.66,1.49,5.97l-2.61-5.87-7.89-.11,5.98,11.51c1.38.67,4.92.87,6.38.51,1.19-.3-.02-2.44,1.63-2.01l1.01,2.98c-1.2.86-8.15-1.75-7.99,1.49,3.13,3.65,5.77.28,8.99-.48l-1,4.97,2.99,1.01-4.04.66c-2.88,4.93,6.66,8.49,5.55,13.35l-6.94-8.67c-12.1,1.96-24.56,2.76-36.56-.34-.2-1.89,2.09-.8,3.2-.7,3.69.35,22.12,3.09,23.8.7l-1.02-5-3.98,1,2.87-3.3c-.27-3.4-4.12-5.01-4.65-5.86-.18-.29.77-1.88.06-3.49s-3.84-7.81-4.98-8.13c-12.77-.61-38.05.3-33.31,18.79-4.65.52-4.22-3-6.95-4.05,2.47-7.05,11.16-10.07,11.96-16.93l1,3.99c3.84-.89,8.84-3.4,12.64-3.65,1.8-.12,3.79.93,5.87.76s3.27-1.7,4.01-1.76c1.32-.1,2.66,2.2,4.47,1.65,3.37-3.34-11.01-6.63-12.55-6.95-2.94-.61.37,2.06-.96,1.97l-8.48-2.02,1.99-1.98c-2.03.61-5.53.42-7.23,1.02-1.58.56-1.13,3.62-3.77,2.96l6-6.98-9-.02c.26-4.28,12.62-1.38,12.96-2-1.11-5.96,5.93-1.04,9.82-.27,4.66.93,9.45,1.55,14.23,1.27l-1.01-1.98,12,1-6.99,1.98,22.99,2c-3.75-3.72-6.73-5.82-8.64-11.07-1.18-.23-13.37,2.21-15,2.91-1.18.51-1.56.79-1.38,2.17l-1.61-2.06c-3.88.08-10.33,2.28-13.83,2.04-6.91-.46-15.58-3.85-22.32-4.69-16.8-2.1-30.52-2.5-45.57-12.24-7.12,2.09-14.75.29-22.04,1.06-2.35.25-19.97,3.58-20.91,4.09-2.85,1.54-1.22,4.33-1.92,7.08-2.65,10.27-8.76,5.99-14.04.77-1.23-1.21-2.68-4.99-4.82-6.42-1.65-1.1-8.41-3.13-8.91-3.63-.15-.15.41-2.05-.54-2.07l-7.3,3.22.28,4.92,5.52.89,2.04-6.96-1,6.99,4.99,1c-4.7-1.33-6.29,1.73-7,6.01.25-1.86-.15-4.07,0-6-4.12.43-6.88-.29-7.08-4.92l-7.91.91c-.69-1.56,8.13-1.93,3.57-2.93l-17.57,5.45,3.01,1-3.9,2.12c-.59,5.69,2.02,14.1,8.89,13.39,2.07,1.51-15.48,4.07-16.99,3.98l11.99-3c-3.23-4.51-6.07-7.97-5-13.99l-5.99.99,6.99-4.98c-.59-.43-13.93.64-13.02,3.97h-1.99s.5-1.99.5-1.99c-5.04,1.04-11.6.69-15,5.01l-.95-2-6.44,2.1c-.36,2.6-.88,4.46,1.75,5.39l-.8,2.38,2.94,2.12-7,2.01v14c-1.76.22-.95-2.26-1-3.49-.13-3.16.1-6.36-.01-9.51-5.05,4.02-9.54,7.17-8.06,14.45l2.94.62c1.56,6.78-1.2,5.25-3.54,7.26-1.08.93-8,19.8-7.32,20.68l2.98-2c.28,2.26-2.16,3.15-3.2,5.29-.67,1.38-3.35,8.95-2.78,9.71l8.49-13c2.98,3.48-1.55,4.66-3.34,7.66-3.71,6.22-6.41,13.39-10.67,19.33-2.2-3.97,1.87-6.92,2.87-10.22.81-2.68-.69-5.11,1.59-7.33l-.96-1.45c3.04-5.12,6.48-18.52,7.5-24.51.15-.89.86-1.45,1.5-2-.26-1.06-2.1-.31-2.99-.5.74-.98,2.18-1.53,3-2.51l-1.99-2.48,2.92-.06.06-6.95c-4.23,2.7-5.99,3.41-5,8.99l-1.48-2.99c-5.93,2.97-1.84,11.24-5.03,14.97-2.05,2.4-13.18,4.65-14.52,9.49l-1.95.54c.14-1.05.68-1.92.91-2.92l-1.9-1.07c3.1.21,4.58-2,6.5-4.01l.99,1.99c2.49-2.46,8.51-4.76,9.99-8.01,1.48-3.26-1.01-7.39.52-10.99l1.99-.48-2.99-2.5,5.93.95,1.09-3.33-2.54-1.65-.94,2.02-5.54-2.01c-.06-2.33,2.84.29,4.01-.43,1.31-.82,1.03-2.28.98-3.55-6.21-.46-12.39,2.68-18.44-.06l-1.55,2.05c.26-2.31-.04-2.71-2.01-3.49,3.17-1.34,5.08-7,6.31-8.25.44-.45,4.03-.96,4.69-3.76-10.91-3.63-9.98,0-11.93,9.16-.27,1.28.62,2.88.43,3.84-.36,1.88-2.58,3.8-2.51,5.99,1.55.47,4.49-.53,4.03-2.48l2.98,2.98-7.99,1-4.01,15.55,2,1.94c-5.24,4.15-5.97,11.18-7.93,17.07-.54,1.61-2.06,2.88-2.56,4.44-.82,2.56.36,14.04,3,13.98,3.5-1.75,5.14-18.43,4.21-19.77-.28-.4-1.63-.13-1.7-.23-.24-.35,3.19-4.86,1-7.98,9.78-.49,2.44,11.84,3,18l9.99-14c-1.06,8.13-11.1,13.68-11.04,21.47.01,1.67-.69,2.75,1.5,2.51,1.48-.16,7.76-2.3,9.54-2.98-.25.17-.5,1.14-1.67,1.79-2.8,1.54-8.71,1.15-9.38,4.73-.22,1.17,1.63,9.43,2.13,10.7.95,2.38,5.41,2,2.91,5.78l2.07-.62,3.43-5.37c3.31,5.2-.36,5.95-2.5,8.45-2.62,3.06-1.39,13.08-2,17.54l4.01-3.99c2.86,1.47.42,4.01-1.34,5.21-4.36,2.98-4.01,3.58-3.6,9.72l2.92,1.05-4.01.52c2.42,13.28-.83,26.87-2.99,39.98.23,1.51,6.28,9.12,6.99,8.51.37-.31-.82-2.39,1-2-.31,4.6,6.47,10.65,10,13.51,3.26,2.65,6.5,5.19,11.01,4.48l-2.99-3.49c4.35-2.72,4.05,2.51,6.68,3.32,2.39.74,5.76-.09,8.32.17l-2.99-2.01c-.91-2.54,2.95-2.52,3.07-3.58.73-6.59-16.11-4.58-20.08-3.39l-.48,1.97c-3.83-2.2,1.28-4.99,2.98-4.99h14.5c.33-3.86-1.75-7.46-4.51-10l-1.49,1.99c1.11-4.32-2.49-6.23-3-9.99l2.98,2c1.88-1.43,2.67-13.89,2.02-16.35-.27-1.03-2.38-.32-2.01-1.14,3.13-3.76,1.77-9.01,3.8-14.21,1.14-2.92,3.54-6.01,5.7-8.3l-6.39,17.6c-.14,1.33-.32,14-.15,14.75.1.44,3.07.83,1.04,5.64,1.34,1.51,10.18-7.17,9.01-9.99l17.7,8.81,3.27-1.31c-4.21-4.65-12.45-12.42-19.27-10.51-.96.27-2.79,5-5.71,4l1.57-2.99c-1.78-2.26-3.57-3.39-6.57-3.01.98-2.02,3.7-1.52,3.01-4.98,2.08-.08-.16,2.27,2.19,3.33,3.26,1.47,9.3,1.47,12.81.68l-.88,1.85c6.28,2.54,10.99,7.13,15.52,12,2.11-.09,11.81-6.43,9.89-8.88-3.29-4.2-9.72,1.7-10.54,1.02l2.99-4.98-15.99-1.99c5.98-2.97,13.94,2,18.52,1.9,2.18-.04,3.07-2.3,6.01-1.04,3.67,1.57,1.75,3.38,3.01,6.07.94,1.99,2.32,3.54,3.45,6.06-2.43-.17-3.68-5.68-5.47-4.98-2.29.89-7.1,8.36-11.53,8-.08,3.94,6.4,9.27,6.81,11.67.52,3.05-5.88,5.78,2.71,8.07,6.8-4.8,1.48-12.96,2.49-19.74l2.98,13.99c2.03-6.11,3.87-10.46,2.01-16.99.04.08.93.28,1.29,1.25,4.63,12.44-5.29,17.15-5.28,28.72l9.57,1.95,1.98-.82,10.43-19.09-7.99,18.99c5.64,1.54,6.67-2.58,10.99-3.98l-2.02,4.51,10.36,2.38,11.67-19.44-2-.96,4.99-6.07,3,1.06c-4.48,3.9-7.08,9.94-8.99,15.5,3.95-4.14,16.21-13.42,16.97-18.61.2-1.38-.67-2.9-.53-3.92.22-1.54,3.27-3.87,2.55-6.49l2.99,1.02,1-6.01-1.98,1.01,5-26.01c5.19,4.43-3.28,12.01-.02,17.99l-1.98-1.99-.88,6.83,5.37,5.15c5.22-5.73,8.23-14.47,7.49-21.99l-3.98,1v-5.99s1,3.99,1,3.99c5.07-2.96.09-5.33,0-5.68-.78-3.33.51-8.67,0-12.32l2.98,9.99c.94-6.72,2.43-12.15,1.02-19l1.98,1.01,1.01-19c-5.26.27-8.63,1.53-5.42,6.97.47.8,2.07.86,2.27,1.14.26.37-1.15,6.85.14,8.87-1.97-.03-.79-5.66-3.49-3l-4.49,12c-.02-2.78,1.02-4.68-2.01-5.49,4.76-4.41,2.85-11.77,4-17.5-11.55,2.16-26.66,5.62-33.85-6.66-1.89-3.22-1.37-5.51-2.15-8.35.33,1.88,3.44,7.87,4.96,9.54,7.11,7.84,22.24,8.63,30.57,2.5.48-1.02-2.64-8.03-3.36-9.72-2.42-5.7-13.95-24.58-14.17-28.33,4.05,1.63,13.4,26.49,17.5,30.98,3.57.07,2.64-18.07,4.39-21.41l-3.88-3.57,3.03.57c1.75-1.27,2.18-20.14,2.57-23.68.11-1.04-.11-3.15,1.38-2.88-1.71,3.73,1.95,5.35,2.03,5.68,1.06,4.66-3.75,20.85-4.55,26.29-.19,1.31,1.43,2.12,1.27,3.31-1.04,7.75-2.98,15.15-4.73,22.72.71.69,8.45-1.71,9.03-2.69,2.7-4.57,1.54-18.14-.21-23.19l-2.83-.12,1.99-5.99c-.46,2.6,2.42,1.53,3.04,2.65,2.49,4.52,1.23,18.47,4.21,24.09,1.26,1.57,9.02,1.06,9.25-1.76,4.62,2.84,10.38,4.02,14.85,7.17s7.87,7.72,10.63,11.3c2.05,2.65,4.27,5.18,6.02,8.06.16,3.04-1.08.7-1.82-.19-5.79-6.99-11.02-16.43-19.78-20.22-3.57-1.54-15.15-3.51-18.4-1.62s.57,7.22.93,10.06c1.09,8.62.23,16.51,2,25.03.36,1.71-.03,3.66.08,5.41,2.43.33,1.59,0,2.11-1.39,2.13-5.69-.12-11.79.9-17.6,1.26,0,2.68,3.96,2.78,4.71.5,3.7-2.82,12.11-2.88,16.79-.07,6.01,3.15,12.04,2.09,17.49l2.99-1c2,8.48,6.29,16.21,11.18,23.34,4.86,7.1,8.92,10.42,14.87,16.13,2.63,2.52,5.66,9.25,10.35,8.59.61-.09.63-1.51.87-1.62,2.46-1.19,3.96-.62,3.74-5.42l-4.99,1.99c1.71-8.42,8.29-.98,11.32-1.23,1.94-.16,5.26-2.75,6.65-4.27-.04-2.28-20.24-4.89-23.98-5.51.37-5.95,10.75-.6,14.58,0,1.72.27,3.43-.94,4.78-.73,2.08.32,5.49,3.61,10.35,3.43,1.11-.04,9.62-3.42,10.35-4.13,1.9-1.85,1.92-6.02,3.91-8.07l-6.54-2.46,1.56-9.03c-.83-.83-7.12,1.83-6-2,8.03,1.44,9.47-1.51,11.91-8.4l-4.91-3.59c5.6.79,4.45,3.04,8.99-1.01-2.22,8.75,10.3,2.67,14.99,2l-3.99,2.99,9.99,1-3.99-1.48,4.99-.51c-.56-5.29,1.11-10.27,1.07-15.53-.11-13.72-4.96-12.44-12.48-3.38-3.74,4.51-6.12,10.94-10.58,14.92ZM459.99,275.07h-1v26h1v-26ZM459.98,596.06c.47-.52-1.84-9.59-3.98-9.99.05,3.57-1.35,9.58,3.98,9.99ZM437.99,633.07c-8.54,8.57-18.9,15.41-27.52,23.95-1.16,1.15-2.79,2.15-2.48,4.03,5.49,1.12,9.31,6.15,15.27,4.82,1.09-.24,11.07-6.26,12.66-7.37,2.3-1.6,4.62-5.39,6.54-6.51,2.33-1.37,5.09-.86,8.56-4.39,4.45-4.52,2.3-5.74,3.49-8.47,2.77-6.36,7.18-11.08,5.46-19.07-.53-.71-14.3,8.65-15.01,9.48-5.67,6.72-7.77,21.7-14.49,28.51.01-8.94,8.19-17.18,11.5-25.5-.6-1.14-3.05.16-3.99.51,2.66-2.67,7.77-5.92,7.08-10.4-.17-1.12-2.53.09-2.08-1.59,3.57,1.62,4.84-6.65,5.01-9.51.12-1.91.14-1.47-1.43-1.37-2.4.15-5.77-.43-7.56.37-.81.36-11.13,12.55-11.55,13.57-.53,1.29.61,2.79.5,2.89-.13.13-2.29.12-3.5,1-9.55,6.91-16.56,19.58-22.48,29.52l4.02,2.07c8.44-7.3,21.83-22.8,31.98-26.54ZM457.98,564.06l-1.16-9.84-4.83-2.16c-.8,1.07,1.13,14.11,5.98,11.99ZM456.98,553.07c.14-1.79-1.86-9.9-3.49-9.98-3.54,5.01-1.98,8.64,3.49,9.98ZM441.23,102.75l14.75.33c-5.89-1.37-11.34-4.65-16.71-6.79-2.12-.84-8.85-2.01-9.25-2.28-.1-.07,1-1.51.04-2.42-2.49-2.38-19.77-8.8-23.64-9.46-5.86-.99-12.49-1.11-18.43-1.06l4.99,1-1.8,1.12,2.8,7.87c-5.8.94-8.95-4.23-13.99-4.98l5.7,13.02,27.3,2.96-12.98-8.49c5.07-4.66,12.21-3.43,18.46-3.48l10.51,2.97c-8.5-.69-18.11-4.63-25.98.51,0,.89,13.66,8.14,15.54,8.44,2.86.47,14.5,1.46,17,1.11,2.37-.33,3.65-2.06,4.93-2.09.6-.02.42,1.52.75,1.72ZM455.98,151.07l-1.65-8.04c-5.27-1.27-6.9,3.55-11.33,5.55l7.99.51-3.85,2.14-.15,3.85,5.92-.08.09-4.92,2.99.99ZM452.12,182.87l3.39-.78.48-6.03c-2.92.22-5.72-1.33-6.5,2.01l-1.14-2.04-6.36.03.99,4.99-2.03-4.96-6.96.97c4.36,7.27,8.01,10.66,16.95,7.94l.06-3.95,1.12,1.8ZM454.98,193.07l1-7.99-2,2.99-1.61-2.07-11.37,1.08c-.55,3.04.92,1.53,2.36,2.09,3.82,1.47,7.74,2.66,11.63,3.91ZM454.98,588.06l.82-7.22-6.8-17.77c.98,5.49,1.28,11.67,2.44,17.05.49,2.28,1.41,6.65,3.54,7.94ZM455.74,614.84c.74-1.28.21-2.76.13-4.11-.07-1.01-.48-5.57-1.87-5.66,1.28,5.29-2.91,4.1-4.03,5.72-.74,1.07-2.7,8.48-1.98,9.27,1.64.56,7.27-4.41,7.74-5.22ZM431.99,665.06l12.94-3.55,11.05-16.44c-7.32,7.57-17.46,11.83-23.99,19.99ZM436,396.06c2.82,1.14,19.18,4.15,17.98-1.45-.92-4.29-12.07-1.09-15.19-.23-1.03.28-3.03.25-2.79,1.68ZM452.48,157.07l-8.41-1.45-.59,3.45,8.41,1.45.59-3.45ZM440,375.06c5.12-.83,9.05-5.02,11.99-8.98l-4.29.95-7.71,8.03ZM445.98,679.07l6.01-18c-.34-.38-5.5,1.5-6.37,2.12-1.5,1.05-5.84,9.1-6.61,4.39l1.99-2.5-15,2.99c-1.79,1.43,5.97,4.75,6.74,4.86,2.79.41,3.13-1.89,5.25-2.86l-1.56,4,9.56,5ZM429,138.06c2.76.84,6.5-.83,8.71-.72,1.51.07,2.42,1.49,3.85,1.72,4.94.8,7.35-1.99,9.43-5.98l-21.99,4.98ZM435.99,128.07c.02.06.77-.3,1.01.64.31,1.24-.39,3.13.43,4.42l1.2.86,11.36-1.93-1.06-6.94-12.95-.06c-.11.97.15,2.07,0,3-.16-.39-1.42-1.96-1.56-3.07l-7.84.22c-1.02,2.04-2.54,4.06-3.6,5.85-.04-1.26.27-2.63-.97-3.51-5.5-3.87-26.63-2.81-34.02-3.48l32.52,11.96c.72-1.82,1.48-3.28,2.48-4.97.06,1.93-.12,3.27-1,4.99l14.01-.99c-.57-2.3-.37-4.69,0-7ZM440,377.07c-1.34,1.23,8.92,11.91,9.99,6.48.52-2.63-9.42-7-9.99-6.48ZM443.99,603.07c.96-1.88,1.93-3.61,2.96-5.45l-3.95-9.55c-.43,6.82-6.56,11.6-7.01,18.99,3.68,1.75,4.92-1.86,8-4-.83,1.63-.88,3.29-2.98,4.5,1.79,2.3,5.19,1.63,7.83,1.35,1.9-4.82.85-9.8-4.85-5.85ZM424.99,394.06c2.85.91,23.93-2.59,23.98-4.49-1.32-1.95-2.26-1.5-4.23-1.27-3.99.47-12.28,2.52-16.3,3.73-1.34.41-3.11.08-3.46,2.03ZM448.99,456.06l-.49-7.99-6.5,5.98,6.99,2.01ZM448.98,597.06l-1.28-9.2-4.7-9.79c.35,4.39,1.89,9.04,3.28,13.2.51,1.53,1.29,5.2,2.7,5.79ZM442.99,362.08l4.04-.46c4.38-2.96-5.57-12.36-8.05-6.57,4,.47,4.34,3.57,4,7.02ZM439.99,451.06c8.05-1.12,9.15-6.2,5.99-12.99-1.7-1.33-4.93,11.79-5.99,12.99ZM447.99,462.07l-.12-4.89-5.88-1.11,1.11,5.88,4.89.12ZM405,398.06c8.24,5.8,16.25.69,24.45,2.07,2.87.48,4.19,2.94,7.01,3.01,2.44.06,7.44-1.99,9.53-3.57-12.25-3.25-24.82-2.97-37.51-2.49-1.21.04-3.72-.75-3.48.99ZM444.99,169.06l-1.14-6.86-7.86-.13c2.33,3.49-2.58,2.98-.99,7.99,3.34-2.24,6.29-1.07,9.99-1ZM444.97,195.57c-4.91-4.96-19.75-12.13-16.84.86l1.49,1.49,6.82.08,8.52-2.43ZM436.99,436.06c4.96,2.68,10.48-11.13,6.48-11.99-3.37-.73-6.93,9.18-6.48,11.99ZM399.99,389.06c5.72-.66,13.14,3.22,18.36,2.95,7.05-.37,18.41-4.77,25.63-6.44l-8.48-9.39c-3.08,2.3-7.26,2.32-10.94,1.79s-7.2-3.94-9.1-3.9c-2.76.06-3.44,4.33-6.48,3.98l5.96-6.58c.27-1.25-1.54-2.86-2.67-3.2-1.07-.32-16.36-1.46-17.86-1.3-2.41.26-.62,2.29-2.42,2.09l-.62-3.05c-9.86-1.77-12.31-3.09-21.44,1.56-1.18.6-2.4.01-1.94,1.99,1.11,2.84,9.64,6.4,12.05,8.96,2.82,2.99,1.67,5.33,6.55,7.45,2.26.98,8.46,2.57,10.67,1.94,3.5-1,5.96-8.93,10.73-8.83l-7.99,9.99ZM442,516.07c1.86-.46,1.85-1.58,1.78-3.19-.16-3.64-.38-10.93-3.78-12.81,1,5.28,2.44,10.56,2,16ZM441.8,685.89l2.16-5.78c-3.56-.28-7.66-5.05-10.93-3.58-.45.2-4.95,4.7-5.03,5.05-.68,3.03,11.31,4.33,13.8,4.31ZM441.98,484.06l-2.48-18.99c-3.64,2.9-1.88,8.93-.82,12.81.42,1.53,1.73,5.52,3.31,6.18ZM441.79,584.87c1.13-1.9-8.77-34.53-11.29-34.74l-4.5,1.94c-.7-.51-2.57-10.7-3.95-12.56-1.46-1.96-7.94-4.16-10.05-6.44,3.13,23.44,6.59,49.38,20.49,68.98,6.3-3.36,4.11-10.3,6.22-14.78.81-1.72,2.8-1.94,3.07-2.41ZM439.82,147.94l-.94-4.78c-.72-.5-15.44,2.51-17.17,3.12-1.57.56-2.2,1.72-1.71,3.27,1.07,3.38,16.68.61,19.99.5l-1.99-1.98,1.82-.14ZM421,145.06c5.27-1.66,12.87-1.01,16.99-4.99-7.08.8-19.18-7.21-16.99,4.99ZM426.99,609.07c-1.44,2.69-12.14,19.73-10.99,21,4.99-.41,5.14-4.67,7.58-6.91,4.53-4.15,10.01-7.06,13.4-12.6l-1.5-2.47-5.49,6.98,3.55-8.01-2.05-1.97c-1.27,1.62-2.99,2.69-4.5,3.98.86-1.61,1.16-3.28,2.9-4.71l-.04-1.55c-9.87-15.54-14.18-33.63-17.57-51.54-1.14-6-1.18-13.93-2.5-19.5-.77-3.26-4-4.76-5.63-7.37-3.11-4.98-4.66-8.74-4.05-14.73,1.67-16.49,15.35-18.59,8.89-40.61.52.44,2.85,2.18,2.99,2l2-10-5.9,4.14c-.34.49.63,2.91.91,3.86-1.11-.93-2.02-2.62-2.79-2.96-5.49-2.39-12.66-1.8-18.21-.05.54-1.62,5.26-2.83,6.62-2.95,6.39-.57,13.77,4.32,17.37-4.55l-9.99-2.48.5,3.99c-4.73-10.31-20.63-4.81-29.29-2.28-3.59,1.05-28.81,10.76-29.73,12.27s-.95,5.41.96,5.75l30.79-3.99,10.75-4.25c-4.08,8.22-39.49,6.58-41.57,9.47l8.57,50.03-11.98-50c-.1,11.7-.54,23.74-2.15,35.36-2.05,14.77-10.13,34.07-8.58,47.87,1.63,14.51,8.39,29.98,9.71,44.78-1.84-.31-1.67-2.06-2.12-3.37-1.43-4.17-2.49-9.93-3.58-14.42-2.17-8.93-4.34-18.05-5.29-27.21-2.87-.8-2.98,3.53-3.05,5.47-.5,13.13,5.2,39.28,8.33,52.76.8,3.46,3.32,8.42,3.74,11.27.33,2.24-.96,1.46-2.52,1.52l-1.48-2.02.12,2.37c4.91,4.33,10.55,6.93,8.87,14.63,9.86,1.41,20.66,1.54,30.39,3.12,4.3.69,16.83,4.94,19.17,4.83.78-.04,5.57-3.83,7.45-4.95-1.11,1.25-3.29,3.43-4.01,4.5-1.71,2.56,1.12,3.53,3.86.85,1.57-1.53,5.81-6.5,4.65-8.35-1.08,2.15-3.14,2.19-4.5,3,4.87-5.48,8.95-6.67,11.55-14,1.62-4.56,4.6-11.02,7.65-16.31,2.29-3.99,4.36-6.73,7.81-9.69ZM425.2,170.82c.85.51,5.16-.47,6.09-.95,3.75-1.93,3.81-10.56-2.3-6.8l1-2.99-24-3,12.58,2.91,9.41.09c.43,1.63-1.38.68-1.67,1.17-.3.51.67,1.86-.24,2.35-1.67.89-4.59-.48-4.1,2.47l-1.61-2.06-11.38,1.09c3.34,4.04,11.09,8.06,15.52,3.98.59-.18.38,1.57.69,1.76ZM433.99,435.07c-.12-2.81.21-5.71,0-8.52-.08-1.1.57-3.31-1.49-2.47-4.81,1.96,1.51,7.3-1.51,10.98h3ZM420.99,83.08c2.52,4.06,7.48,5.71,12,5.98-2.96-2.97-7.71-6.27-12-5.98ZM404,112.06c3.99.6,25.9,5.54,26.99.5.92-4.25-14.08-1.94-16.48-2.47l-10.5,1.98ZM430.98,541.06c-1.28-14.88-1.79-30.08-5.95-44.54-.39-1.36-.12-3.1-2.04-3.45.33,15.1-1,32.02,5.53,46.01.7,1.49-.16,2.47,2.45,1.99ZM420,372.07c.46,4.79,6.61,4.06,9.99,3.98-1.94-3.9-6.08-4.35-9.99-3.98ZM428.98,550.06c2.22-2.06,0-9.35-3.98-8.99-.05,1.3,1.6,11.19,3.98,8.99ZM426.98,431.06c.59-1.58,1.74-8.48-.54-8.95-1.17-.24-6.25,1.64-5.44,3.95h5c-.73,1.32-1.21,4.73.98,5ZM410.99,118.06c4.57-.42,8.81,2.02,13.21,2.38,1.16.09,2.16.82,2.77-.88,1.49-4.16-5.59-1.86-7.65-3.42l-8.34,1.92ZM426.99,195.07v-7.01s-8.99-1.01-8.99-1.01l-.99,3c-.33-4.38-4.75-2.84-8.01-2.98,1.79,2.26,5.56,7.43,8.49,7.04l1.5-2.04c-.98,2.9,7.58,3.42,8.02,2.99ZM425.99,339.06c-.92-5.52-7.37-3.2-8,1l8-1ZM402.99,428.07c-1.27.03-5.05-.82-4.99.99,8.01,2.64,17.72-1.73,23.99,5.52l-10.6-3.39-6.38.88c5.47-.56,9.04,3.16,13.79,3.82,2.85.39,4.55-1.72,7.2,1.2,1.06-14.5-12.58-6.23-21.56-7.95l-1.43-1.05c2.05-.06,6.95.94,8-.99-7.12,1.15-16.19-4.92-22.64-4.99-3.5-.04-5.9.12-9.86-.03-5.15-.2-10.35.16-15.5,0l1.99-1.98-14.99-4.02c.86-3.07,5.92,1.93,6.99,1.01-.01-.66.06-1.34,0-1.99,4.22,3.21,9.25,1.94,13.99.99l-4-.99,1.01-3.99c-4.2-1.07-8.21-.73-11.51-3.99-2.89,2,.27,5.13.51,7.98-3.68-2.81-1.66-6.16-4.6-8.96l-9.89,2.96.5,1.99-5.47-2-1.56,3.01-2.98-1.5v5.5s3.36,0,3.36,0l1.14-2c2.79,3.85,7.91,3.29,12.28,4.72,3.89,1.27,6.87,4,11.23,3.29l-.09,8.92-9.91-1.92,5.73,3.77,40.27-1.79-6.99-5.99,12.99,3ZM387,107.06c12.33,3.73,25.43,1.78,38,.51-9.41-5.02-24.93-4.44-35.25-2.23-.97.21-3,.36-2.75,1.72ZM424.98,446.07l-1.18-7.81-6.81-1.19c-1.56,1.42,7.09,7.51,7.99,8.99ZM417.41,365.52c2.5-2.27,3.86-5.34,6.58-7.45l-7.43.88-3.07-5.87c-3.1,1.45,0,6.55,1.53,7.47,1.82,1.09,4.65-.73,3.96,2.51l-5.99-.99,2.52,4.98c1.78.56,1.28-.97,1.9-1.53ZM397,177.06c6.93-.8,15.87.74,22.52.06,1.49-.15,3.1-.26,3.47-2.04l-6.49-1.1-19.5,3.08ZM361,109.07c.23,2.06-.86,6.17.97,7.52.74.55,16.07,4.97,17.77,5.23,4.39.68,12.02,1.06,16.72,1.28,8.47.4,17.07-.37,25.54-.05l-60.99-13.99ZM421.99,211.06c.94-.91-5-14.9-7.99-11.99-.41,2.33,5.16,14.75,7.99,11.99ZM421.98,455.07c.58-8.51-4.36-15.75-11.47-20-1.91,1.48-1.21,1.16-.7,2.65,1.02,2.94,3.34,5.34,4.28,8.32l2.89-.98,5,10.01ZM421.99,537.06l-4.99-52.49c-.37-2.96-5.57,4.64-5.95,7.05-1.05,6.64-1.09,27.16.06,33.83s4.2,9.61,10.88,11.61ZM406,414.06c3.83-.79,8.1.79,11.53.84.9.01,3.67-.36,3.46-1.82-2.91-.05-5.54-1.08-8.49-1.1-1.31,0-6.08.38-6.5,2.07ZM403,139.08l16.99-2-23.46-7.84-41.42,6.94-1.11,7.89h5s-2-2.99-2-2.99l11.5,2.07,32.49-3.07-16.5,2.98-8.87.13-7.62,1.87c16.8,1.37,34.1,1.89,50.85-.14l1.14-5.85c-3.58-.31-6.89.85-10.45,1.04-1.35.07-6.25.72-6.54-1.04ZM418.98,151.07v-4s-12.99,0-12.99,0l12.99,3.99ZM418.99,334.06c-.09-7.87-15.52-4.12-18,2l18-2ZM395.99,672.07c1.18-2.34,6.67-8.18,1.72-6.79l-14.71,11.78c7.26,2.31,8.07-.88,12.99-4.99-.42.84-2.31,4.64-2,4.99,4.95.65,7.28,3.32,11.99,0l-2.99-1.98c2.44,1.37,16.4-5.61,14.99-7l-14.48-2.02c-1.65.15-5.76,4.54-7.52,6.01ZM400,339.06c7.62,3.24,11.44,5.76,15.99-2.98l-15.99,2.98ZM415.98,454.06c2.15-2.19-8.69-15.8-9.11-19.38-4.89-6.03-29.53-.07-37.39.18-2.39.08-5.68-1.56-8.5-.79l33.52,17.97.97-2.98c4.43,4.89,14.08,3.18,20.5,4.99ZM415.99,478.07v-15c-1.47-.22-1.38,1.75-1.69,2.8-1.19,4.07-2.28,9.15,1.69,12.2ZM391,114.06c7.68,1.29,15.12,2.68,22.99,2l-19.62-2.87-3.37.87ZM397,175.06l16.99-2.49c-2.49-3.73-10.82-.82-14.66.37-1.62.5-2.83-.82-2.32,2.12ZM381.99,76.07c4.86,3.97,9.88,3.62,16.01,3.99l.47-1.98c4.08,3.24,9.74,1.45,14.51,2.98-.23-2.25-4.35-5.28-6.06-6.43-9.03-6.05-21.48-9.37-29.44-17.56-2.88,5.05-1.94,9.16,1.5,13.49.92,1.15,2.98,1.64,3.52,2.48s-.56,2.27-.52,3.03c-2.28-1.86-2.67-4.67-6-3.99l1.94,6.55,5.06.43c-.22-1.03-.94-1.89-1-2.99ZM406.99,359.07c2.61-1.16,4.51-2.05,2.41-6.1-3.48-2.58-8.61,2.75-12.4.61,3.85-3.19,7.12-3.76,11.99-4.52-1.14-8.1-5.64-3.52-11.01-2.98l1.01,2.98c-4.81-2.72-7.56,8.59-6.56,10.02,1.09,1.55,11.25-.37,14.55-.02-.05.02.28.7-.66.99-3.54,1.08-9.07.93-12.84,1.01-4.03,5.32,17.7,5.76,18.49,5-.53-4.48-.23-6.48-5-6.99ZM411.99,394.06c.24-2.65.04-1.62-1.5-1.98-2.23-.52-13.89-3.4-14.5-.5-.3,1.45,3.66,4.06,4.73,4.28,2.8.58,7.99-2.32,11.27-1.8ZM398,423.06c4.51,1.61,9.29.91,13.99,1l-3.55-3.02-10.44,2.02ZM381,150.06c9.78,3.61,19.96,1.12,30,.51-7.69-2.07-15.47-3.11-23.5-2.49-1.35.1-6.05.49-6.51,1.98ZM393,160.06c5.24,1.34,10.62,1.06,15.99,1l-6.51-1.98-9.48.98ZM393.99,400.06c5.22.45,9.58,3.87,14.99,3l-10.76-4.81-4.24,1.81ZM408.98,527.07l-.49-33.01c-6.16,10.51-10.47,23.92.49,33.01ZM388,186.06c6.42,1.86,12.18,5.41,18.99,6l-3.75-5.98c-5.55.47-12.03-6.23-15.25-.02ZM381.99,168.08l.62,2.86c6.54-.51,17.72,3.01,20.38-4.85-9.95-4.61-21.28-4.24-32-6l2,2.98c-5.04,1.56-9.1-1.58-13.99-1.98l3.99,2-1.56,1.96-4.02-1.96.58-4-9.99,2,26.77,8.7c4.51,1.82,4.27-1.23,7.22-1.71ZM395.83,335.9l4.15-7.82-3.98-.57c-1.53.77-5,7.66-4.01,8.56l3.84-.16ZM397.98,68.07c1.3-1.39-7.33-8.03-8.65-8.83-3.25-1.98-7.51-3.91-11.34-4.15,5.55,5.81,13.12,9.1,19.99,12.99ZM388.99,658.07c.47-.64,2.2-2.73,2-2.99-3.04-.54-5.79-2.03-8.8-2.71-15.59-3.55-32.94-3.11-47.97-6.03-8.15-1.58-5.74,1.64-10.19,6.27-2.31,2.4-5.39,4.04-8.05,5.96,11.82.45,23.67-1.08,35.55-.54,7.26.33,27.48,4.4,32.75,2.83.87-.26,2.78-1.95,4.7-2.79-.55.76-3.19,3.8-3,3.99,5.48,1.66,8.97,1.4,10-4.98-2.91-1.36-4.33-.18-7,.99ZM394.99,338.08c-5.33-3.56-9.03,6.91-5.49,7.98,3.06,1.4,6.1-7.34,5.49-7.98ZM373.27,101.78c5.18,4.37,13.7.67,19.71,1.28l-11.01-3c1.67-4.05-3.17-9.81-5.42-13.66l-9.57,1.67c-.88,1.03,4.91,12.55,6.28,13.7ZM351.99,377.07c-.45,2.08,1.07,2.27,2.27,3.22,4.75,3.76,11.11,4.99,16.41,7.59s11.11,6.82,17,9.07l4.3-4.39c-.01-.36-4.88-3.85-5.77-4.22-3.43-1.42-5.57-.07-8.19-.71-3.38-.84-12.9-4.36-16.25-5.84s-5.39-5.68-9.77-4.72ZM378,408.06c4.45-.63,8.91,2.09,12.99-.48l-5.34-2.22-7.65,2.7ZM355.49,434.07c-4.5-.93-11.64.68-16.5,0l3.01,35c15.52-6.97,31.75-14.92,48.99-16.01-3.54-3.08-9-5.92-13.33-8.16-3.75-1.95-19.47-10.27-22.17-10.83ZM390.99,664.08c-8.36-2.76-14.47,5.34-19,11.47,7.56,5.63,15.09-6.05,19-11.47ZM384.66,84.39c1.49,1.16,1.6,4.63,5.33,3.66l-4.14-6.84-5.86-.14c.49,2.48,3.45,2.37,4.67,3.32ZM370,129.08l18.99-2.02-9.73-3.75-50.82-3.3c-2.59-1.48-11.88,8.43-11.44,9.04,5.44,1.69,5.1,6.45,11.44,7.08,5.38.53,20.9,1.57,22.58-4.06,7.65,5.9,19.85-.92,28.97-1.01l-9.99-1.98ZM360.99,693.07c2.94-4.38,12.32-8.29,15-14h-19.5c-6.78,0-3.54.3-8.8,3.2-1.67.92-17.61,7.89-16.69,8.79l7.99,2c-4.63.88-9.78-1.84-14.14-1.43-4.72.44-15.73,3.46-21.08,4.73-.99.24-3.01.3-2.77,1.7,1.83.54,3.51.93,5.45,1.06,14.81.95,41.49-.4,54.54-6.04-.25.38-1.18,1.86-1,1.99l10-.98-6.99,2.98,12.82,1.85,3.14-5.39-1.96-2.43c6.39.18,8.37-7.8,11.99-12-11.53-2.97-15.77,7.72-24.09,12.43-1.61.91-2.6.99-3.91,1.56ZM357.99,169.07c8.84,3.07,17.49,6.68,26.99,6.99.79-2.33-3.24-3.32-4.76-3.73-8.01-2.15-17.08-1.94-24.79-6.23-3.68-.26,1.76,2.43,2.55,2.97-5.29-1.84-10.41-4.84-16-4.99l2.49,3-8.49-3c6.92,5.55,17.11,10.27,25.99,7.98-.49-1.17-2.62-2.04-3.99-2.99ZM360.35,373.43c-.85.81-1.26,2.37-2.34,3.15.05,2.54,21.08,9.68,24.98,9.49-2.98-2.93-11.98-13.07-15.02-14.48-2.79-1.3-5.53-.14-7.62,1.85ZM359.99,386.08c5.52,5.08,13.28,12.14,21,11.98-5.63-5.92-13.53-9.14-21-11.98ZM364.99,418.08c3.46,4.35,11.27,1.06,15.99.98-4.04-5.08-10.65-.89-15.99-.98ZM260.99,671.08c.5,1.58,1.92,2.65,3.52,2.97,4.98.97,14.14.37,19.97,1.03s13.17,2.59,19.02,2.97c15.31.99,32.6-5.59,48-4.2,5.86.53,3.08.57,7.25,1.96,11.92,3.99,10.24-.66,16.25-7.24.81-.89,6.7-4.53,5.99-5.5-3.77-.78-7.68-1.53-11.51-2-15.16-1.85-33.83-2.64-48.98-1-9.76,1.06-18.37,4.86-28.15,5.84-11.37,1.14-23.16-.61-34.36,2.16l4.99,2-2,1ZM366.99,401.08c2.32,4.43,7.64,7.28,11.98,3.49l-11.98-3.49ZM367,87.06c2.91-1.35,9.67.3,8.58-4.06-1.34-5.35-9.7-1.32-8.58,4.06ZM373.98,105.07c.76-2.9-3.08-2.41-4.61-3.93l-1.87,1.92-4.34-4.14,1.83-9.85c-3.84,1-10.56-1.15-8.8,4.28.98,3.04,4.41,1.39,6.8,3.73l-2.01,1.62.02,7.37c5.03,1.3,8.51-3.63,12.99-1.01ZM372.99,79.06c1.63-1.48-2.74-2.71-3.01-3.71-.39-1.48.38-3.24-.5-5.27-.4-.93-6.56-6.98-7.48-6l2.04,14.96,5.47-1.96c.32,1.54,2.29,3.09,3.48,2ZM360.99,402.08c.96,1.87,3.85,4.08,5.74,4.76.89.32,3.52,1,3.25-.75-4.63-.31-5.13-5.01-8.03-8.48-1.5-1.79-10.02-11.18-8.25-4.77,1.32,4.79,5.97,5.74,9.28,8.74l-1.99.5ZM352.99,149.08c3.72,5.25,10.52,3.92,15.99,3.98-.54-1.6-4.57-1.93-6.18-2.31-3.2-.76-6.52-1.54-9.82-1.67ZM367.99,395.06c-3.08-2.5-7.43-6.94-10.68-8.81-.91-.52-3.3-1.77-3.29.32.02,3.45,9.74,10.44,13.98,8.5ZM364.14,147.18l1.84-1.1c-4.13,1.2-9.74-2.37-12.99.49l12,2.49-.85-1.88ZM334.99,418.07c-1.71,1.47,4.62,4.64,5.47,5.02,5.48,2.45,13.55,3.97,19.52,3.97-1.95-3.91-6.07-4.34-9.99-4l1.99-1.98-16.99-3.01ZM342.99,106.07h14l-3.5-15.01-.78,2.7-17.72,18.3,23,3.01-.04-5.96-14.95-3.04ZM357.99,120.06l-.67-3.01c-6.06-.67-26.4-6.64-29.32.53.09,3.66,6.53-.14,8.44.45l21.55,2.03ZM352.99,70.07c2.31-3.09,2.32-5.15,1.99-9l-7.83,3.58,1.79,6.01c1.05.83,2.89-.48,4.04-.6-1.67,2.24-3.38,1.33-2.83,4.22.37,1.91,1.57,3.74,1.93,5.67,5.67,1.85,5.87-5.33,4.76-9.25-.7-2.47-2.4-.78-3.85-.64ZM353.98,385.07l-4.51-5.99-1.33.18c-.16,3.11-3.67,1.57-6.15,1.81,4.34-3.78-2.33-7.01-3.4-9.96-.54-1.49,1.12-4.89-1.58-6.47-1.67-.98-1.88,2.87-1.73-4.25l-10.28-14.3,4.98,16.51-2.9.54c-.69,3.79.63,8.17,4.91,5.95-2.28,4.7,3.38,6.95,4.21,11.83,3.81-.31,3.79,1.04,5.8,3.68l-2.01.97,12.51,13.51-2.57-8.34,3.08-2.17-2-4.48,2.98,1ZM336.99,433.07h16l-12.43-8.07c-7.94-3.71-2.99,3.59-3.57,8.07ZM340,392.07l10.5,9.99c2.8.56.45-2.21-.15-2.89-4.82-5.44-10.4-10.29-14.87-16.1-1.93.34,4.1,6.59-.01,4.01-.44-1.97-3.6-3.44-4.12-4.26-.67-1.04-1.16-7.56-4.35-6.77-.7,4.42-.63,11.41,3.99,13.51-7.71,2.8,9.29,10.04,10,9.49l-2-2.98,8,4.98-6.99-8.99ZM333.99,105.08c5.07,1.98,12.66-6.05,14.48-10.03,1.6-3.51-.95-4.1-3.98-4.07-21.7.26-38.34,12.57-59.97,14.13-2.56.18-22.56-.8-22.55,1.46l33.53,7.57c5.52-.4,11.54-1.68,16.99-2.06,9.04-.62,19.61,3.02,25.49-5.51l-3.99-1.49ZM326.99,138.08c.25,1.72,1.34,1.39,2.46,1.6,7.46,1.37,14.31,4.65,19.54-2.6l-22,1ZM335,677.06c4.61-.32,9.85,1.13,13.99-1.48l-4.17-1.28-9.82,2.76ZM310.99,700.08c.35,1.92,2.09,1.65,3.46,2.03,7.46,2.1,18.81,1.19,26.33-.76,1.91-.49,6.21-1.52,7.21-3.27-12.3.87-24.74,3.49-37,2ZM346.99,73.06l-2.49-7.97c-6.03,2.74-4.66,9.41,2.49,7.97ZM337,156.07c-1.72,1.69,6.7,7.89,8.98,3.48,1.15-2.42-8.01-2.95-8.98-3.48ZM302.99,686.06c6.76-.59,16.24,4.23,22.43,3.94,4.78-.23,17.04-6.23,20.57-9.92-13.45,3.22-25.71,4.43-39.51,4.99-1.21.05-3.72-.76-3.49.99ZM330,396.07c.6,6.55,6.73,6.34,11.99,5.98l-11.99-5.98ZM333,634.07l-1.55,7.99c2.79,2.34,5.89,4.13,9.58,2.55,3.87-2.54-5.9-12.39-8.03-10.54ZM322,478.07l16.54-7.99-.56-13.01c-4.4,6.46-10.5,7.42-17.99,7.01l2.01,13.99ZM327,478.06c3.86-1.27,12.93.97,11.99-4.98l-5.28,1.21-6.71,3.78ZM328.98,548.06c5.95-22.89,9.99-46.22,10.02-70l-17.06,2.58,7.05,67.42ZM268.99,678.08c2.86,5.17,8.37,2.01,12.25,2.22,3.12.17,7.76,2.32,11.37,2.64,15.6,1.38,31.34,1.26,46.39-3.38l-7.02-.51.51-2c-6.18-.98-12.16,1.58-18.01,1.99-14.79,1.03-29.15-3.63-43.98-2.99l4.49,2.99-5.99-.98ZM316.99,434.07l3.18,27.32c1.4,4.25,14.67-.73,16.38-6.26,1.53-4.95-.16-16.55-3.05-21.06h-16.5ZM317.49,433.07h17.5l-16.34-14.65-3.65-1.35c.47,2.78.41,15.36,2.49,16ZM323,156.06l10.99,2c-.31-2.38-9.05-5.69-10.01-4.98l.85,1.88-1.84,1.1ZM333.98,428.06c.63-5.09-2.36-6.58-6.99-6.01l4.49-.99.49-1.99c-3.39-1.65-6.07-2.61-9.99-2.01.82,2.32,1.3,3.53,4.01,3l-.97,2.88,8.96,5.11ZM321.99,411.08c.52,2.15,9.67,7.31,9.97,3.5l-2.54-4.39-7.43.89ZM331.98,619.06l-8.48-49.99-6.52,3.51c1.76,9.41,4.55,18.61,5.89,28.11.41,2.94-.36,6.24.15,8.85.56,2.9,3.51,3.55,5.54,5.46,1.5,1.41,1.85,3.55,3.44,4.05ZM329.99,409.07c1.67-9.76-10.53-7.42-17-9-2.26,12.34,8.76,8.46,17,9ZM296.99,115.08c.59,1.87,2.83,2.65,4.56,2.93,3.67.58,22.54.53,24.99-.89.84-.48,3.26-3.33,2.44-4.05l-31.99,2ZM326.98,147.07c3.8-7.83-9.4-4.97-13.99-3.99l13.99,3.99ZM314.02,398.03l13.97,2.03c-1.7-4.07-6.41-5.64-8.51-9.98-.66-.3-4.31,3.36-4.52,3.71-.75,1.24-1.12,2.8-.94,4.24ZM325.99,141.07v-3c-5.63,1.79-16.85-4.44-18,3h18ZM316.99,556.06c1.83.42,1.97-.54,2.83-1.65,1.46-1.87,6.17-10.75,6.22-12.79l-6.06-59.54c-2.84-3.04-3.98,11.12-4.03,12.45-.45,10.72,1.25,23.09,1.48,34.05.19,9.08-.62,18.42-.44,27.49ZM324.98,161.04l-.04-2.91c-5.05-3.07-7.88,1.84-11.95,1.44l1.99-2.49c-2.59.53-13.13.43-14,2.49,3.02,1.96,4.15,3.99,7.99,2.5l-1.99,1.98c6.74,1.05,11.79-1.31,17.99-3.02ZM324.98,358.07c.45-3.95-3.41-19.46-5.97-21.38-.49-.37-1.81.34-2.48-.59-.87-1.21-.47-3.66-2.53-4.03l2.19,10.37c4.85,1.27,3.29,7.45,5.58,12.35.6,1.27,1.8,2.85,3.2,3.29ZM285.99,100.07h18.5l19.5-8h-72v9.99s3.99-5.99,3.99-5.99l-.99,6.99c14.65-.24,28.46,2.03,43-1.01l-12-1.99ZM321.98,380.06c-.76-2.85,1.8-5.3,1.97-7.54.54-7.11-8.56-14.54-10.01-21.69l-3.95-3.76c1.65,3.99-1.86,5.12-1.86,5.45.04,1.52.08,4.68.21,5.9.17,1.57.85,6.06,2.63,6.65.46-3.04-.49-6.2-.4-9.12.03-.94-.02-3.18,1.4-2.87l2.02,11.49-2-.5c-.28,5.28-.74,7.58,3.49,11.04.78.64,2.17.21,2.53.55,1.45,1.36.92,4.94,3.96,4.42ZM314,410.07c.56,4.81,6.19,5.4,9.99,4.98-.56-1.92-9.35-5.57-9.99-4.98ZM318,571.06c6.78-2.01,6.15-12.17,5.98-17.99-8.66,4.73-7.27,9.24-5.98,17.99ZM323.99,643.06c.51-2.87-1.65-4.23-3.5-5.98-2.14,1.54-2.87,3.34-2.5,5.98h6ZM310.99,136.06l11.99-.49c-5.15-6.2-8.12-7.99-11.99.49ZM307.76,120.31l7.74,6.6,6.48-5.35c.41-2.26-.98-1.39-2.48-1.49-4.68-.33-9.33.31-14-1.03l2.26,1.27ZM320.98,610.07c-1.59-30.93-14.32-60.58-12-91.99l-1.98,17.51-.51,27.48c-4.32-4.46-2-11.71-2.51-17.49-.88-9.95-2.4-20.05-3.88-29.93-4.6-.87-8.42-.53-13.08-2.11s-7.68-5.05-12.02-6.47c-2.94,17.37-13.34,34.23-26.48,46.02l-15.52,13.46c2.07,5.48,30.98,11.94,37.36,10.39l22.62-4.38c-8.85,4.65-20.04,5.57-30,5.5,1.2,8.54-8.91,16.39-15.08,21.42-10.36,8.44-29.25,22.53-40.22,29.27-1.12.69-5.86,1.24-6.56,2.48-1.04,1.84,2.58,5.84.97,8.24l-4.1,2.08c5.38,8.39,11.41,4.27,19.5,3.52,14.86-1.37,29.85-1.97,45.06-4.04l51.8,1.9c11.37-17.24,1.23-13.21-10.76-14.97-4.21-.62-16.42-4.41-14.51-10.24,3.37-1.58,6.92-6.11,9.57-7.56,2.07-1.14,3.73-.24,5.02-.87,1.86-.91,8.2-5.87,9.31-5.21l-.1,2.49,8.09,3.5ZM319.98,615.07l1.01-3.97c-5.29-2-9.14-4.68-14.96-1.97-1.24,4.9,3.69,2.63,6.95,3.36,2.54.57,4.45,2.39,7,2.58ZM317,480.06l2.94-2.41-1.96-14.58c-1.48-1.42-1.8.1-1.99,1.48-.7,5.2,1.74,10.3,1.01,15.51ZM202.99,652.07c3.49,2.07,9.29,10.62,12.49,10.05l1-2.05c1.73,2.31,3.5,3.37,6.5,3.01l-1.99,1.48c1.24,4.56,7.59,4.02,11.45,3.46,1.52-.22,2.64-1.79,4.09-1.94,3.29-.34,11.92,2.69,15.49.51,2.54-1.55-1.91-4.19-1.03-6.53l4.99-.99-4.99-3c9.64,3.97,18.72,8.37,29.54,8.03,8.05-.25,32.7-3.65,37.98-9.02,4.69-4.78-1.18-3.58-2.62-5.41-1.03-1.31-.8-3.03-.94-4.56-19.48-.76-40.04-3.14-59.49-2.09-6.67.36-13.6,2.71-20.46,2.05l2,2.98c-9.76-4.6-21.52.18-32,.02l2,2.98-5-1.98c-.36,1.38.61,2.04,1,2.99-.84-.5-5.39-2.53-6-1.99l.99,3.99c-2.44-1.78-2.97-2.36-6.08-1.6-.47.12-8.18,5.48-6.44,6.63,2.75,1.04,7.34,7.3,9.26,7.82,2.26.61,3.96-.78,5.62-.55,1.84.26,5.24,3.13,8.66,1.69-1.37-4.76-5.95-8.1-10.99-7l3.99-1-1.5-3.99c5.31,3.92,9.22,12.94,16.5,11.98-2.52-3.54-5.16-6.96-10-6l2.99-1.49c-2.88-3-5.43-4.58-7-8.5ZM290.26,155.81c4.37,4.8,22.45-.14,28.72-1.24-4.86-3.51-11.08-8.49-17.39-8.4-4.49.07-16.44,4.03-11.34,9.64ZM318.98,628.06l-.13-5.86-14.94-3.56c.07-10.77-16.7-1.92-11.46,3.46,5.49,5.64,19.36,4.38,26.53,5.96ZM317.98,462.06c-.19-8.2-1.18-16.38-1.94-24.55-.32-3.45-3.23-4.36-5.14-1.8-2.32,3.1,2.48,21.33,2.09,26.35,1.75.23.93-2.26.99-3.48.31-7.03-1.95-13.65-.5-20.52,1.74,7.36,1.42,15.05,2.52,22.51.26,1.74-.52,1.68,1.97,1.5ZM314.98,559.06c-1.04-6.67,1.04-14.24,1.05-20.45,0-1.83-1.06-3.84-1.08-6.01-.09-10.19,1.03-20.65-1.46-30.55-3.79-.12-2.18,27.01-2.54,30.55l4.03,26.45ZM313,433.07c3.48-1.68,1.48-11.93-1-14-1.23,5.45.46,8.78,1,14ZM289.99,124.08c-1.18,2.09-1.9,9.27-.07,10.55,10.31.03,20.32,5.92,24.13-6.99-5.07-2.84-8.73-7.53-15.06-5.58l2.99-1-1.71-1.78c-17.76-1.9-34.13-.58-51.3,4.29,6.85,2.96,17.86,8.16,25.32,6.48.83-.19.68-1.77,1.92-2.28,2.63-1.08,11.97-5.24,13.77-3.69ZM310.99,502.07c3.42-2.05,3.9-13.51,2.52-16.02-.78-1.67-2.52.03-2.52.52v15.5ZM310.94,402.02l-.55-1.95-7.39-1,4.51,5.99,3.43-3.04ZM309.7,389.82c1.07-2.22.15-4.86-2.24-4.43-1.3.23-4.85,4.39-6.45,5.12-1.47.68-3.62-2.09-3.03,1.54,5.68-.54,1.83,5.94,8.36,3.86,2.48-.79.59-3.31,1.6-5.14.31-.57,1.61-.66,1.75-.96ZM308.67,375.79c.69-1.55.28-3.12.32-4.72l-3.52.97-1.47,11.02c4.25.14,2.47-4.04,3.02-6.3.18-.76,1.53-.71,1.65-.97ZM307.98,482.06c-1.43-4.61,3.59-19.04-1.66-20.82l-12.32-2.17,2.99,24,10.99-1.02ZM286.99,440.07c-5.75,14.94-13.83,28.3-15,44.99l23.92-2.08-1.93-16.91c-2.38-.55-1.62.41-2.23,1.3-4.72,6.91-5.67,9.83-15.76,8.68l8.27-2.22c4.73-2.31,5.3-8.27,6.34-12.78.58-2.54-1.73-3.62,1.45-4.6l-1.05-8.39,2.97,9.51,14.02,2.48v-18.5c0-.33-1.33-6.15-1.5-6.5-1.28-2.69-11.5-2.62-13.84-1.83-3.09,1.04-2.16,6.08-2.76,6.77-.43.49-2.31-.17-2.91.07.51-1.33.29-3.58,1.03-5.27.48-1.1,2.82-.09,1.96-2.73-2.61,1.56-4.05-.39-6.6-.9-4.88-.98-25.39-4.73-28.85-4.1-2.42.44-5.1,3.97-6.54,5.99l15.37,1.14,12.62,2.86c-9.42-.25-19.89-3.6-29.31-1.75-1.8.35-9.76,9.49-11.69,11.76l8-11.99c-4.34,2.05-8.19.48-12.25,1.22-1.02.19-14.99,6.7-15.73,7.29-2.74,2.18-4.06,13.79-2.1,16.83l10.09,3.23c1.79-1.12,6.61-11.08,8.56-13.51,1.17-1.46,2.7-2.2,3.43-3.06.72,3.93-11.99,15.13-9.99,17.98,15.45,5.38,33,8.34,44.49,21,3.49-3.32,1.43-8.33,1.5-11.39.01-.58,1.66-.51,1.93-1.35,1.89-5.94,9.05-31.18,14.07-33.24ZM302,512.07c1.32.26,2.33-.43,3.05-1.44,1.19-1.68,2.34-15.44,2.47-18.56.04-.92.57-2.91-1.02-2.97-.37-.01-6.27,3.21-6.52,3.48-1.15,1.25-.83,3.25-1.03,3.48-.09.11-1.55-.83-2.29-.67-1.82.38-2.75,1.95-4.66,1.68,4.03-3.4,7.13-5.81,4.06-11.55l-23.64,1.49c-.75,1.04-.43,2.19-.24,3.32.2,1.2,3.49,11.53,4.07,12.99,2.48,6.24,16.4,11.82,22.81,10.33,2.37-1.7-.02-10.01-.11-13.04-.03-1.12-.63-3.79,1.04-3.53l2.02,14.99ZM305,324.07c3.59-2.32.51-10.27.27-14.53-.7-12.22.12-25.93-1.24-38-.17-1.5-.21-3.09-2.03-3.46l-2.11,21.51c2.2,5.25,2.22,14.17,1.03,19.92-.77,3.72-4.2,7.84-2.92,12.56l3.98-1.99-.98,9c3.67-1.47,1.41-6.12,3.49-7.99l.5,2.99ZM297.98,484.06c-2.63,13.67,11.82,2.4,9-.99l-9,.99ZM305.98,363.06c.76-6.3-1.9-11.91,0-17.99l-4.01,7.48,2.92-12.08-.4-11.4c-2.99,5.23-6.32,14.17-6.19,20.36.02.88,1.67,8.47,2.67,7.63.34-.29-.78-2.42,1-2-.27,3.38-.39,7.81,4,7.99ZM300.99,416.07h-16.5c-.88,0-3.63,1.86-5.5,1.01v.99s15,0,15,0l-23.45,3.05c-1.02.43-9.34,4.53-7.55,5.95,8.2-.58,19.12,3.96,26.66,3.96,2.27,0,2.65-1.02,4.31-1.94-.82,3.26,11.56,3.46,12.03,2.99.68-1.89-1.83-16.8-3.99-15l-.57,2.04-5.44-1.06,4.99-1.99ZM305.99,535.07v-23l-3.84,2.58c1.45,5.71,1.22,11.94,2.09,17.68.14.89.44,3,1.75,2.74ZM298,385.06c3.95,4.13,7.19-15.75,7.08-17.51-.17-2.78-1.71-3.73-3.59-5.48l-1.49,1.99c.25-1.7.24-6.57-2.5-5.99l-3.53,5.99-1.47-2-2.56,1.66-.03,1.88c3.74,3.99,1.28,10.86,5.58,15.47l2.48-7.99.02,11.99ZM288.99,143.07l13.99-1.99-13.99-3.01v5ZM277,410.06c4.55-.33,10.04-1.93,14.48-2.06,2.32-.07,12.48,2.78,11.51-1.42-4.76-4.77-13.25-1.88-18.98,0-1.87.62-5.94,1.88-7.01,3.48ZM301.99,403.06l-1.71-5-22.79-2-5.48,5.01,1.98-4.99c-1.9-.51-3.5-.7-5.42-.01-7.41,2.66-6.51,8.88-11.57,13.51,4.71.3,9.93-3.07,12.99-6.5l-1.15,4.54-2.84.47,1.99,1.98c-3.86-.11-6.1,2.42-8.5,5.01l-.5-3-3.04.46-17.95,10.53c2.63-.69,6.47,1.44,8.73.32,1.75-.87,1.94-2.77,2.5-3.13,3.52-2.3,19.59-8.05,25.46-10.96,9.26-4.59,16.39-7.52,27.3-6.23ZM301.99,413.07h-16.5c-.61,0-6.35,1.19-7.52,1.48-.21.05-5.07,1.56-3.46,2.54,8.11-2.99,15.63-2.68,24-3.02,1.23-.05,3.71.76,3.49-1ZM293.01,342.05c3.79-4.74,8.87-10.86,5.97-16.98-3.79,4.63-6.48,9.1-8.96,14.5,1.16,1.86,3.31-.44,2.99,2.48ZM270,394.06l28.99,2c-2.45-2.82-2.26-6.71-6.49-7.09-1.31-.12-18.53,1.66-19.95,2.14-1.63.55-2.92.75-2.56,2.95ZM288,168.06l9.99-2.99-9.99-1v3.99ZM286.99,355.07c1.28.63,1.73.43,2.99,0l-.99,6.99c5.7-.98,8.26-6.86,5.98-11.99l-2.98,2c2.71-6.73-2.21-8.13-4.46-1.92-.76,2.09-.24,3.48-.55,4.93-1.59-.77-.28-2.68-2.98-1.99l-6.02,14.98c5.74-1.9,7.86-7.73,9-12.99ZM293.99,386.06l-5-21c-11.46,1.63-13.59,13.4-15.99,22.99l20.99-2ZM246.98,117.06c12.43-.07,24.91.55,37.24-1.27,1.01-.15,3.98-.29,3.77-1.71l-16.48-4.03-.42,2.52c-5.67,3.73-12.1-.79-16.55-.48-2.19.15-3.35,2.2-5.54,1.96l2.99-2.01c2.38-3.51-10.89-3.36-12.61-2.06-.83.62-1.22,2.05-1.41,3.07l-2-.51,1.02-2.48c-5.39-.67-7.76-.06-10,4.98,3.46,1.2,5.11,1.57,7.99-.99.28,1.59-2.56,2.85.53,3.03.9.05,7.4.02,7.93-.08,2.05-.41,2.55-2.17,4.56-1.94l-1.02,1.98ZM286.99,134.07v-5s-1.99,3.99-1.99,3.99l-1.99-5.99-2.01,5.98,5.99,1.01ZM286.76,141.85c.6-1.11.13-2.56.24-3.78-6.88-.56-10.79-.71-12,6.99,2.49-.39,10.71-1.24,11.76-3.21ZM267.99,155.06l17.99-8.49c-1.03-2.43-10.61-.26-12.3.69-2.24,1.25-3.9,5.75-5.69,7.8ZM285.97,151.06l-.5-2.01-13.49,7.01,13.01-2-.92-2.55,1.89-.45ZM277.88,166.21c.34.25.28,2.2,1.73,2.73,3.85,1.4,7.44-.31,6.39-4.86l-11.43.02c-3.94,4.47,3.05,1.92,3.31,2.11ZM276.55,172.62c-1.4,1.15-3.19,1.36-2.09,3.47s6.68,6.62,9.12,4.08l1.93-9.13c-3.41-.87-6.6-.36-8.96,1.58ZM271.16,137.87c.37.34,7.68-2.58,4.85-4.32-10.56-1.92-20.59-4.92-30.33-9.2-4.58,1.4-9.53,2-13.92,4.01-3.49,1.6-7.29,6.59-10.76,6.21l2.99-3.49c-7.84,2.36-17.52,4.79-24,9.98,3.87-.35,8.56.64,12.29-.2,3.26-.74,4.25-3.99,7.2-4.8l-3.49,5c6.14.43,12.04-.33,18.05-1.44,4.25-.79,12.45-2.43,16.4-3.6,1.03-.3,9.01-5.16,7.54-1.47l-3.99,6.51c7.98,2.31,8.34-2.76,12.5-7.99l-1.5,5.99c1.97.13,4.15-.84,4.02-2.97l1.95.04.2,1.75ZM274.73,171.81c.52-.5.62-1.65,1.19-2.27l-5.92-4.99c-1.04-1.59,4.23-1.85,1.01-3-2.56-.91-8.16-1.24-9.54,1.51-2.55,5.1,3.5,5.56,6.88,7.15,1.95.92,3.29,4.58,6.38,1.61ZM273.98,377.07l-6.91,6.64c3.62,8.33,7.14-1.95,6.91-6.64ZM195.99,633.07c-.1-.14,1.3-1.68.86-3.28-.36-1.3-4.4-4.24-3.86-4.71,2.9-.92,4.78,4.94,5.64,5.07,3.02-.39,5.68-2.23,8.28-3.66,10.86-5.98,42.42-28.34,49.59-37.41,1.76-2.23,5.34-6.51,4.41-9.38l-1.58-1.48-33.34-6.65,3.75-5.02-2.76-3.48c1.86-.6,2.48,1.63,3.68,1.84,1.4.24,16.64-12.71,18.85-14.82,12.82-12.26,20.51-28.29,24.42-45.52l-5.92-17.01-53.59,2.45c-.08,7.4-2.51,14.34-3.42,21.58-.95,7.6-2.9,22.03-2.97,29.14-.04,3.5,2.98,3.36,2.95,6.35l-3.98-1.99c-2.88,20.51-10.78,39.79-18.83,58.67l-4.17,7.32c.35-4.92,4.1-9.57,5.55-14.02,1.1-3.35,3.03-17.61,5.42-19.45.47-.36,1.59.71,2.08-.07,1.91-3.04,9.03-29.37,8.96-32.99-.04-2.04-.9-4.68-3.01-5.47-2.47,9.81-4.96,21.96-9.53,30.98-1.84,3.63-5.19,6.39-6.55,9.45-2.05,4.6-2.69,12.55-4.22,17.78-2.08,7.12-4.88,14.14-6.62,21.4-.53,2.2,1.8,1.72,2.94.93,1.87-1.29,1.3-5.7,3.95-6.54l-2.99,7.99,7.99,2-8.97-.97c-3.72,3.06,9.72,12.65,10.62,12.82,1.53.29,4.17-2.49,6.35-1.84l-4,2.01c.67,6.74,11.2,4.08,5.97-1.52-.56-.6-1.89-.38-1.97-.49ZM264.99,377.09l-2.98-2.48,10.97-14.54c-4.08,3.9-15.92,14.2-17.5,19.05-.52,1.6.8,3.68.52,3.95-.2.19-3.54-.57-4,2.51,4.55,1.92,6.31-3.4,8.55-5.45,1.41-1.29,3.85-1.04,4.44-3.04ZM258,423.06l6.67-1.82,8.32-6.16-5.71.77-9.28,7.21ZM268.99,112.06c-.42-5.21-8.67-2.77-11.99-1.98,2.38,3.38,8.45,1.56,11.99,1.98ZM255.2,665.84c1.28.76,5.37.22,7.17.1,1.21-.08,6.17-.57,6.61-1.86l-15.99-2c.56.77,1.87,3.56,2.21,3.77ZM266.99,680.06c.88-.79-6.11-6.95-6.95-7.54-8.25-5.73-25.24-2.61-35.04-3.45l3.79,5.95,38.21,5.03ZM213.99,488.07l52-2.5c-10.74-11.79-27.6-13.42-41.7-19.35l-5.29,5.84,1.91-6.91-8.92-3.08,1,17,2.98-2-1.99,11ZM263.99,118.07h-18.5c-.21,0-2.41,2.16-3.5,2.49,1.49,3.51,15.76-.19,18.99-1.02,1.15-.29,3.24.07,3.01-1.48ZM211.2,425.22c7.76-1.37,17.56-.02,24.67-2.77,2.23-.86,13.84-7.83,15.61-9.39,2.36-2.08,5.72-7.17,7.5-9.98-3.8.08-7.64-.19-11.45.04-1.53.09-2.87,1.54-4.07,1.54-.8,0-1.27-1.67-3.16-.88-4.13,1.73-10.98,7.69-15.97,10.15s-10.74,4.62-16.35,6.16l1.99,4.49-1.77.68.78,2.81,2.2-2.84ZM255.84,400.92l.15-3.85c-3.44-.71-7.68,1.02-7.99,4.99l7.85-1.14ZM229.19,170.81c1.85,1.21,18.73-4.06,21.14-5.9,1.13-.86,2.05-1.05,1.65-2.84-8.38.84-18.12-1.61-22.5,6.97-3.37-1.95,2.58-3.49,2.5-5.97-5.11-.3-11.29-.23-15,3.98,2.61-.27,6.68.36,8,3-4.16,1.1-9.44-1.94-13.1-1.42-2.69.38-10.94,5.27-14.34,6.49-2.64.95-8.95.44-8.55,3.94,4.17.88,8.43-2.9,11.69-3.62,6.57-1.44,19.66-.86,25.52-3.41,1.32-.58,1.27-2.13,2.29-2.96.9-.17.22,1.43.69,1.74ZM237.99,91.07c2.83-.54,11.85,1.46,12.86-1.64l-1.87-42.36c-2.3-.48-1.6.23-2.25,1.27s-6.32,12.74-6.5,13.47c-1.08,4.26.1,10.98-.26,15.74-.17,2.27-2.76,12.73-1.99,13.51ZM228.98,435.06c1.9.47,2.98-1.57,4.62-1.73,1.96-.19,3.37,1.23,6.43.31,2.49-.75,8.6-5.66,10.97-7.56-3.59-1.65-4.49.97-7.49,2l.49-3c-5.74-.04-11.57-.98-15.98,3.49l2.97,4.5c-4.28-3.53-10.55-2.44-15.01.5l.53,2.51c3.95-1.09,9.23.06,12.01-3l.47,1.98ZM248.99,92.08c-5.8-.21-18.62-1.49-10.05,6.53,6.52,6.1,6.94-2.11,10.05-6.53ZM247.98,144.06c-1.12-5.57-6.75-5.61-11.25-3.92-.77.29-.7,1.8-1.19,1.79-7.35-.09-17.53-1.4-24.08,2.12l-.47-1.98-17.01-1.02c-.31-2.63.05-1.58,1.47-2.01,9.62-2.9,11.06-4.76,19.04-8.97,2.78-1.46-.82,2.8,1.96,1.97,3.21-.96,9.23-2.78,12.08-3.93,1.79-.72,9.54-5.03,9.42-6.56-3.22-3.62-8.23-2.63-12.34-4.3-5.67,4.62-7.78,9.28-14.66,12.29-7.88,3.45-15.97,3.95-24.34,5.43l-6.64,17.08c8.65,2.29,16.48,3.45,23.49-3l-1.49,3c11.35-3.98,31.08,2.53,41.23-1.26.97-.36,1.73-.87,2.33-1.71l-2.56-6.01,4.99.99ZM227.16,409.86l1.25.15,10.58-7.93c-4.97-1.07-7.92,1.84-12,3.49-2.06.83-5.33-.07-6,2.49,1.69.22,3.77-.39,5.34.01.75.19.67,1.71.83,1.79ZM237.98,393.06c3.49-2.96-9.47-3.13-10.55-3.04-1.75.14-3.27-.21-4.43,1.56-.46,2.44,1.91,1.5,3.36,1.36,4.07-.4,7.28-1.82,11.62.12ZM235,91.07l.99-19c-3.11,3.68-7.79,12.85-8.01,17.5-.15,3.05,5.38.91,7.03,1.51ZM220.99,397.06c4.96.94,10.62,1.7,14-2.98-4.05.87-13.41-2.5-14,2.98ZM217.99,106.07c3.46-2.14,10.2-4.43,13.94-5.04l2.06-8.95c-3.87-.69-5.07.21-7.98,2.01l.49,1.99c1.5-1.96,6.08,1.4,2.99,2.97-6.39-3.5-14.4-8.1-21.5-3.97-.48,2.81,2.82,3.14,4.01,4.75,2.64,3.55,1.42,6.19,5.98,6.24-.62.38-2.21,1.21-2,1.99,2.16.58,14.9-1.93,14.98-3.49.1-2.08-2.81-.71-3.53-.57-3.35.62-5.81,2.11-9.45,2.07ZM225,80.07c5.31-2.76,4.09-9.34,3.84-14.35l-2.37-1.73c-4.03,1.99-24.69,9.22-25.35,12.7l1.88,5.37c2.5.65,4.54-5.17,6.52-2.03,1.55,2.46-1.55,9.45,4.15,9.88,2.44.18,13.42-9.53,10.32-13.84l1,3.99ZM225.97,383.06c-.25-2.6,4.65-3.94,1.53-5.97l-9.51,2.99c-.7,4.23,4,.8,5.44.93l.63,1.95,1.91.1ZM223.74,90.82c1.34-1.16,1.28-4.99,1.25-6.75l-8.97,6.49c1,2.37,6.55,1.28,7.73.26ZM212.99,115.06l11,1c-2.7-3.66-8.84-6.15-11-1ZM183.25,159.82c1,.69,12.26,2.32,14.1,2.19,4.94-.35,15.09-3.31,20.46-4.62,1.62-.4,5.63-.7,6.17-2.31-10.77,1.51-23.94-1.4-33.52,3l-1.84-2.02-6.64,1.02c-.12.09,1.13,2.66,1.26,2.74ZM210,417.06c.98.98,13.02-3.65,13.99-5.98-5.83.7-13.29-1.92-13.99,5.98ZM198.99,121.07c2.2-1.28,7.87-4.07,4.49-6.99-4.45-1.16-5.29,4.05-7.48,6.5.21.94,2.12.5,2.99.49-4.77,2.78-13.44,5.05-11.99,12,9.02-1.01,17.63-2.32,26.01-6.02l-1.01-2.97c3.28,2.89,11.21-5.96,9.99-7-3.34.86-7.28-1.31-10.24-.84-4.08.65-6.05,4.79-12.76,4.83ZM201,58.07c2.93-3.37,9.54-7.35,11.85-10.64,3.37-4.8,6.1-15.5,7.13-21.36-7.66,9.23-14.43,20.76-18.98,32ZM219.99,387.06c.8-3.23-3.62-1.71-5.42-3.01l-3.56,4.53c2.71,3.69,5.47-2.1,8.98-1.51ZM204.99,403.06c.44.45,11.48-.64,12-2.98l-12-1v3.99ZM207,382.06c5.81.9,8.35-1.05,7.99-6.99l-7.99,6.99ZM207,99.07l-1.93,6.42c9.58,7.33,10.45-3.71,1.93-6.42ZM208,489.07c6.56-6.66.56-17.64,1.98-25.99-2.63-.79-2.83,2.62-2.99,4.48-.64,7.17,1.87,14.29,1.01,21.51ZM207.98,514.06c2.02-7.62,3.05-16.24,2-23.99-1.29-.28-1.61,1.87-1.74,2.73-.57,3.9.06,7.93-1.24,11.77l.98,9.48ZM198,406.06c3.84.78,7.1,2.81,10.99,1-.46-2.02-3.21-.32-5.11-2.43s2.05-9.51-9.89-5.55c-.43,5.07,3.84,5.41,8,5l-3.99,1.98ZM207.98,458.06l1-9.99c-5.39.43-6.6,9.01-1,9.99ZM206.99,539.06l1.99-23.99-3.5,7.99c-.17,4.76-5.46,15.23,1.5,16ZM206.84,92.92c2.18-3.72.62-5.44-2.35-7.84-2.56,2.7-3.92,6.26-3.5,9.98h5s-3.99-1.99-3.99-1.99l4.84-.16ZM199,73.06c2.52,1.86,7.27-8.98,6.98-11l-7.86,6.16.88,4.84ZM203.91,104.99c4.03-12.26-.18-5.92-4.4-6.34-1.15-.11-2-1.76-4.89-1.58s-5.78,2.59-8.63,3.01c-.29,1.3,1.04,1.19,1.99,1.48,1.98.6,15.26,3.91,15.93,3.44ZM205.99,489.07v-16c-1.46-.01-1.94,3.04-2.29,4.21-2.78,9.33-3.54,18.2-2.26,27.93l-4.46,24.33c1.17,1.14,1.12,2.09,2.48.5,6.52-7.64,5.83-22.48,6.51-31.97-1.16-.82-3.22,7.93-3.98,3.51,1.31-2.38,5.45-8.2,3.58-10.6l-3.59-1.91h4ZM201.98,480.06l3.01-13.99c-5.56-1.02-4.16,6.76-3.99,10.51.05,1.21-.76,3.72.99,3.48ZM187.99,96.06c.42.35,8.39-1.98,9.47-3.02.37-.35,5.24-8.15,5.32-8.65.26-1.58-1.89-3.52-1.81-5.32-2.3-.58-1.64.46-2.27,1.26-3.84,4.87-6.86,10.81-10.71,15.73ZM201.98,108.06c.51-2.83-.67-1.64-2.19-2.25-4.31-1.72-17.54-5.68-20.79-1.73-.69,2.61,1.77,2.41,3.64,2.85,5.83,1.37,13.35.74,19.35,1.13ZM188,575.07c5.19-6.39,8.76-16.61,10.93-24.56.94-3.45,4.54-14.63.55-16.43-1.49-.68-2.59,2.62-3.26,3.7-5.88,9.44-5.35,26.31-8.22,37.29ZM182.99,109.07c-.05,2.03,1.36,4.86,3.49,5.03l14.51-3.04c.29-.37-1.31-1.99-1.5-1.99h-16.5ZM199.98,361.06c1.52-1.37-.46-9.6-3.98-8.99-.08,1.02,1.55,11.19,3.98,8.99ZM171,100.06c15.04,1.95,21.15-12.45,27.99-22.98-1.96-1.53-14.28,8.2-16.47,10.02-1.4,1.16-13.42,11.32-11.52,12.97ZM197.98,75.03c-.13-1.19-.62-4.74-2.47-3.95-.86.37-12.29,11.25-11.52,11.98l13.99-8.03ZM186,124.07c5.9-.36,10.32-4.34,11.99-10l-12.91,2.07.93,7.93ZM194.01,649.06c8.36-.88-5.97-10.92-7.02-9.98l7.02,9.98ZM190,543.07c4-3.95,3.03-11.76,3.98-16.99-1.41-.24-1.45,1.77-1.7,2.78-1.13,4.59-1.23,9.6-2.28,14.22ZM185,649.07l3.63,2.84,4.31-2.33c-3.25-3.56-7.45-13.32-12.98-8.97l4.02,7.45-5.49-6-.51,2.99c-1.69.21-.94-2.43-2.6-2.94-1.07-.33-7.41,1.42-7.37,2.44,3.78,4.04,6.18,8.09,11.97,9.51l1-3.01,1.02,5.99,4.95-3.6-1.95-4.4ZM191.97,425.57c-1.17-2.41-7.94-5.42-8.97-1.99-1.29,4.3,6.9,5.9,8.97,1.99ZM191,437.06c1.68-4.2-5.96-8.31-8-5.99-1.87,2.13,3.44,1.58,1.99,3.99l-5.99-.99v4s12-1.01,12-1.01ZM183,449.07c3.03-1.54,5.86-4.16,7.16-7.35.63-1.54,1.14-1.17-.66-2.63l-7.5,5.48,3.99.51-2.99,3.99ZM185.98,576.07l3-18c-1.45-.02-1.94,3.06-2.27,4.21-.82,2.82-2.39,8.69-2.63,11.38-.19,2.11-.66,2.75,1.91,2.41ZM187.98,189.06v-6.99s-2,4.99-2,4.99l-1-3.99-3.82,1.15-.16,3.83,6.99,1.01ZM185.84,354.98l-.97-8.79c-10.66-1.56-8.34,8.05-5.87,14.87,3.7.7,3.28-4.97,4.24-5.82.54-.47,2.28.05,2.6-.27ZM182,503.07c1.45,1.08,5.96-10.25,2.47-10.99-4.13-.88-4.06,8.38-2.47,10.99ZM180.98,596.06l4.01-15.99c-2.79-.49-1.68.6-2.25,2.19-1.16,3.22-1.85,7.37-2.27,10.79-.13,1.06-1.4,3.23.51,3.01ZM183.81,124.96c1.66-2.09-4.27-7.99-6.81-6.89l-3.99,9.99,1.97,1-10.3,5.01-.69,3c7.25-1.16,18.99-1.28,20.05-10.4l-2.05-.61,1.81-1.1ZM183.98,401.06v-5s-10.99-.99-10.99-.99c.47,1.91,10.56,6.48,10.99,5.99ZM179.98,491.06c.65-3.73,7.11-26.02,2.5-26.99-1.63-.34-2.2,1.24-2.45,2.53-.97,4.9-1.71,12.89-2.03,17.97-.07,1.11-.64,9.1,1.98,6.49ZM174.98,550.06c3.24-10.68,8.19-25.61,8.93-36.64.14-2.03.52-3.91-1.42-5.35-6.23,10.29-7.79,23.51-8.54,35.45-.08,1.33-.74,6.24,1.03,6.54ZM182.99,114.06c1.08-.95-4.61-10.69-10.38-6.89-1.59,1.05-4.36,5.65-1.14,4.87,3.72-3.74,7.68-5.22,7.58,1.97l3.94.05ZM154.99,146.07h14c.53,1.44-3.99.84-2,2.99,1.68,1.8,7.58-.6,10,1.59,2.16-.98,4.85-10.92,5.53-13.55.35-1.33,1.08-1.1-1.06-1.06-5.18.11-18.23,3.62-22.3,5.92-1.78,1-5.03-.55-4.18,4.11ZM181.73,171.81c.59-.54,1.71-3.31,1.26-3.73-4.49-.2-8.36,1.07-8.99,5.99.55.52,6.86-1.45,7.73-2.26ZM180.98,457.07c-.14-2.37,3.45-10.45-.98-10,.29,4.43-6.9,10.02.98,10ZM176,629.07c-.52,2.08.11,10.72,3.43,9.97l2.48-3.34-5.92-6.63ZM171.99,187.07c9.05-2.14,11.91-8.72-.01-6l.91,2.54-1.62.67.72,2.79ZM177,575.07c.56-5.07,4.32-8.42,2.98-13.99-6.04,4.95-6.63,12.56-8.92,19.59l.92,11.4-2.98-5.99-5.83,18.87,1.83.62c-5,1.63-.09,6.58,2.62,8.42,5.93-3.57,6.84-10.47,5.38-16.92l2.98,3.99c2.89-8.78,4.77-17.66,4.01-27l-2.98,1ZM173.99,197.07c1.77-2.24,4.68-3.1,3.99-6.99l-6.58.95.73,5.93c.46.46,1.41-.02,1.85.12-2.35,2.97-3.12,4.62-2.99,9,3.44-1.98,4.71-5.32,4.99-8.99-.63-.13-1.5.15-2,0ZM177.98,363.07l-3.47-13.99c-3.37,3.75-.84,11.99,3.47,13.99ZM177.99,660.06l-.91-3.58-9.08-5.41,1.14,8.86,8.85.13ZM176.99,404.06c.58-2.56-.71-1.75-1.88-2.58-3.5-2.51-6.61-4.05-11.11-3.42l2.99-1c-.79-2.84-3.03-1.44-5-.98-1.12,4.86,13,9.49,15,7.99ZM160.99,129.07c-.21,1.14-.8,3.06-.49,4.01,8.25-2.47,13.12-6.53,15.49-15-1.36-1.01-8.39.29-9.76,1.23-.46.31-3.91,7.73-5.24,9.76.74-4,2.63-6.18,2.99-9.99l-3,2.99c-2.3.11.56-3.45-2.5-3.01-2.52.36-6.78,4.84-10.04,4.99-4.58-.65,6.45-2.96,5.55-4.96-4.09-.92-6.64,1.22-10,2.99.14-.59,1.36-1.76,1-1.99-3.87.12-8.08-.27-9,3.99-2.55-1.45-20.14,6.05-20.84,7.16-.83,1.33.22,5.89-.16,7.84,3.22-1.99,4.5.76,6.56,1.04,2.88.38,6.67-4.79,8.43-7.03l-10.99,4.5c3.88-5.27,14.71-4.18,13-12.5,2.16-.39-.26,5.36,2.48,3.99,2.12-1.06,1.2-3.52,1.52-4.99.97.55,1.1.84,1.01,1.98h1.46c1.6-1.97,3.38-2.85,5.53-3.98-.35,1.45-.07,3.59-1.23,4.77-.83.84-7.07,1.56-2.73,4.7,1.35.98,12.74,4.74,14.27,4.38,2.44-.57,2.9-3.68,2.7-5.84l1.98,2.99c-.35-2.22,1.51-3.22,2.01-3.99ZM175.99,418.06c1.99-5.19-5.54-6.83-6.99-3.49-1.52,3.52,5.09,3.3,6.99,3.49ZM175.82,491.9c.96-1.42-.43-15.44-.94-18.23-.19-1.07-.34-3.73-1.88-3.6-.09,7.9-2.09,15.08,0,22.99l2.82-1.17ZM171.99,495.57v14.5c1.47-.17,2.37-3.58,2.71-4.79,1.08-3.79,1.66-7.23,1.28-11.21-1.32-.27-3.61.12-3.99,1.5ZM160,155.07c5.31.61,12.96,5.32,14.99-1.99-7.69-1.52-19.23-10.09-24.15-.17l-3.85-.86,4.99-5.98-9.99-2,1.01,20.99,1.99-.51-4.01,11.52-1.84-.85-2.14,2.85c-.31-2.93,3.23-5.55,3.8-7.78.36-1.41-.48-2.79-.3-3.7.59-2.95,2.41-4.8,1.49-9.01l-3,.49c3.71-2.62,3.26-3.91,3.07-8.45l-3.06-1.53,2.97-1.51c-2.8-4.22-9.18,1.52-10.74,4.2-4.59,7.88-5.67,21.63-6.62,30.31-.16,1.47-1.66,2.79-1.74,5.48-.13,4.46,3.13,6.99,2.13,11.51,1.75.23.94-2.27.99-3.48.11-2.49-.09-5.02.01-7.51l1,5.99,3.98-4c-2.1,6.26-6.24,10.85-2.9,17.91,5.7,1.34,9.7-5.98,10.66-10.66.27-1.3-.71-2.8-.33-4.29.76-2.95,5.84-7.3,4.57-11.97l2.99.02-1,3.98c9.58.54,17.89-3.59,22.5-11.99l-.5,2.99c5.09.89,6.48-1.23,7-5.98-5.75,1.61-12.36,1.78-18.45.95-2.16-.29-8.84-1.42-9.55-3.46,2.1-.97,3.8-3.96,4.01-6.49l.98,4,17-2.01c1.97-3.46-10.85-4.63-7.99-6.99ZM170,527.07c3.73-3.6,4.14-11.01,4.98-16-4.37,3.46-4.49,10.89-4.98,16ZM167,562.07c1.91-.35,1.66-2.08,2.04-3.45,2.4-8.62,2.22-18.73,3.94-27.54-1.44-.15-1.63,2.36-2,3.48-2.93,8.65-4.23,18.35-3.98,27.52ZM167,642.07c3.33-2.6,5.53-8.02,3.98-12-2.83,2.65-4.03,8.33-3.98,12ZM151.99,201.06l18.05-3.51.69-.93c-.94-2.81-.45-6.77-4.5-4.84-.97.46-1.17,1.74-1.57,1.94-4.01,1.96-9.56,3.41-12.67,7.34ZM158,388.05c4.92,2.75,7.63,3.04,12.99,1.01-2.31-3.43-8.77-1.62-12.49-3l-.5,1.99ZM170.84,437.93c1.38-2.21-1.17-10.76-4.84-10.86l-1,12,5.85-1.14ZM168.77,467.86c1.84-4.82,5.13-23.41-4.19-20.85l-2.58,22.06,6.77-1.2ZM169.98,184.06l-.47-1.98c-3.21,2.03-9.15,1.93-12.07,3.93-2.15,1.47-1.86,3.69-2.78,4.72-1.61,1.79-5.09,2.83-5.67,6.32,4.81-1.52,9.72-3.13,14.33-5.19,1.33-.6,1.44-2.28,1.85-2.55.23-.15,3.62.79,4.72-.36l.12-3.27-2.03-1.13,2-.5ZM170,446.07v-6.01s-5.57.94-5.57.94l-.44,5.06h6.01ZM149.99,405.08c3.72,5.35,10.31,7.65,15.69,10.87,1.93.3,2.2-2.14,3.29-3.38l-18.98-7.48ZM166.28,492.5c.73-.38,1.9.66,2.69-.93-4.62-4.43.03-10.99-.99-16.5-5.42,5.18-8.53,12.54-6.98,20,2.55,0,4.23-2.01,5.28-2.57ZM168.99,513.57c.49-4.93-.35-10.49,0-15.5l-5.04,26.47,1.03,2.52c1.66-4.35,3.55-8.78,4.01-13.49ZM163.98,597.06c1.59-6.31,5.16-12.31,5-18.99l-4.73,8.76c-.02,2.31-.94,4.7-1.14,6.87-.1,1.12-.93,3.59.86,3.36ZM163.82,636.88c.43-6.44,9.43-7.05,1.18-13.81l-1,7.99c-.27-1.98.44-4.48-.02-6.33-.19-.78-2-.62-2.01-1.24-.06-3.63,2.68-4.56-3.49-7.4-1.45.93-1.38,1.92-1.54,3.42-.56,5.14.66,9.36,3.05,13.06l-1.95,1.9,1.9,3.11,3.88-.71ZM161,479.07l6.99-8.99-5.95.04-1.04,8.95ZM167.99,667.06l-2.92-12.36-2.06-.62c-4.05,6.49-5.22,14.34,4.98,12.99ZM160.99,496.07c-.63.93,0,19.25,0,22.5,0,.17,1.35,1.57,1.99,1.5l3.04-22.52c.45-3.09-4.51-2.26-5.03-1.48ZM151,168.06c4.66-.32,11.34,3.61,13.99-1.98l-13.99,1.98ZM151.99,380.08c2.39,4,8.86,3.13,13,3.98-2.63-5.07-8.23-4.02-13-3.98ZM161.98,557.06c.77-3.85,4.03-8.51.51-11.99-1.28,1.33-1.4,3.69-1.55,5.44-.1,1.26-.7,6.28,1.04,6.54ZM157,584.08c-.84,4.25-3.04,8.33-3.99,12.53-.22.97-1.78,3.05.49,3.45,3.72.66,4.26-9.88,4.48-12.51.09-1.09.73-3.73-.98-3.48ZM135,357.07c-.51,2,.65,2.71,1.45,4.04,3.43,5.73,9.21,11.44,12.55,17.51l7.99-.56-21.99-20.99ZM140.99,404.07c.84,6.74,9.38,8.16,14.99,8.98-1.88-2-12.91-10.9-14.99-8.98ZM150,646.06c5.92.28,7.37-2.68,3.48-7.02l-2.5.7-.99,6.32ZM146.99,622.07c.21.14,1.11-.17,1.68.3.59.49,2.41,4.37,3.31,3.7l3.08-11.33-11.48-5.64c-4,3.95-1.69,10.05-3.59,14.93l2.99,1.05,1.53-5c1.75-.37,1.93,1.64,2.48,2-1.71-1.45-2.81,2.08-3.02,3.37,2.35.55,2.27,5.11,4.51,4.63,3.22-.69-.65-7.28-1.49-7.99ZM151.98,595.06l2-13c-6.26,3.38-11.38,9.54-2,13ZM137.99,394.05c5.23.3,10.05,4.78,15,3,1.86-2.24-11.83-5.02-13.49-5.02-1.98,0-1.61.1-1.51,2.02ZM142,142.07c1.48-.21,10.84-2.54,8.99-4.99l-10.99-4.01,2.01,9ZM133.99,116.07c-.29,2.18.09,3.79,2.5,4.04l12.5-4.04h-15ZM145,596.07c-3.12,6.55,2.28,10.46,3.94,2.61l-3.94-2.61ZM146.98,382.06l-.68-3.77-12.3-16.22c2.64,8.35-1.34,21.33,11.9,18.15l1.08,1.85ZM140.97,658.06l5.01-10.45c-1.47-2.42-2.85-.85-4.99-.55l.99-4.99-2.98,4-1-3.99c.06,4.83-.48,9.85.96,14.54.44,1.41-.59,1.76,2.01,1.45ZM130.99,614.06l9.56-5.01-.58-3.98c-3.54-.87-1.31,2.8-1.99,4.01-2.82-1.52-5.36,2.97-6.99,4.98ZM133,141.07c3.06-3.25,8.47-8.18,3.49-11.98-2.77,1.01-3.88,5.78-4.79,6.69-.84.84-4.8,1.33-5.7,3.8l3.99,1.5.99-3,.51,3.01,1.49-2.01.02,2ZM138.98,622.06l-1.01-8.99-4.99,2.01,5.99,6.98ZM131.9,227.98l6.09-18.9-3.02.66-5.88,16.95c-.91,1.89,2.11,1.75,2.8,1.29ZM133.98,331.06c1.66-9.88,3.55-17.41,2.96-27.47-.07-1.22-1.58-2.33-1.57-3.04,0-.81,2.63-2.85.61-5.48-1.28-.57-1.07,4.19-2.98,1.99-.79-.91,2.84-5.5,2.96-7.55.14-2.44-1.35-5.89-1.47-8.46-3.09.07-3.15,9.98-3.19,12.73-.14,9.42.13,21.01.72,30.77.08,1.29.5,6.07,1.97,6.5ZM134.98,351.06c1.68-9.9,3.53-19.89,3-29.99-1.53-.24-1.18,1.87-1.47,3-1.71,6.69-4.31,17.64-3.26,24.25.14.89.43,3.01,1.73,2.73ZM135.99,389.06c-.6-6.21-2.85-8.84-8.99-9.99.27,5,3.58,10.29,8.99,9.99ZM124,231.07c6.09-4.78,6.1-14.53,9.99-20.99-10.44,1.64-9.8,12.73-9.99,20.99ZM132.87,121.94c1.66-7.39-5.88-6.67-11.42-5.92-7.45,1.01-10.72,7.86-5.96,14.02l17.38-8.1ZM130.98,279.06c-.56-3.88,1.5-7.63,1.03-11.49-.17-1.38-.64-2.96-2.01-1.51-.12,2.22-1.04,4.17-1.05,6.45,0,1.01.63,6.21,2.03,6.54ZM121.99,155.06c3.56-3.79,6.17-2.5,6.78-8.78.84-8.59-8.12-1.65-8.78-2.22l2-2.98-6.89.1-1.1,7.89,3.49-2.99c1.97,2.57-3.7,4.17-4.52,5.79-.95,1.89.33,5.48-1,7.69h3.01s-3.75,1.75-3.75,1.75l-2.26,7.75.1-5.4-2.08-.61,3.99-4.98c-4.82-.84-6.83,3.86-10,6.49l1.99,1.49-3.04.52c-.6,4.17,1.17,5.74,4.55,7.47l2.48-2.98-1,4.99,3.01,1-5.99,2.01c1.93-4.19-1.31-3.36-3.04-5.47-1.27-1.55-1.53-5-3.46-4.54-.25.06-1.9,3.01-3.93,3.05l-5.55,9.96c-2.51-4.52,3.21-6.29,2.99-10.99l-4-.99,3.97-1.51-8.48-6.52c-3.06-.52-.95,5.64-3.49,6.01.49-5.1,2.62-8.82-3.01-11.51l2.92-4.84c-1.18-2.38-3.74-3.98-5.27-5.75s-.59-4.83-4.64-3.89c2.19,4.35-4.41,5.86-1.99,9.99l-2.92.06c-.3,1.72.15,3.5-.33,5.21-.55,2-4.86,8.87-.28,6.73l1.52-5.99,1,5,5.99-3.99c-2.01,3.42-3.89,5.42-7.57,6.97v3.03s13.07,20.97,13.07,20.97c2.62-1.26.06-3.33.51-3.98.18-.26,1.35.71,1.99.39,1-.49,4.5-4.93,4.99-4.39l-6.83,10.32c1.64,2.93,3.76,5.6,5.53,8.43,2,3.21,1.43,3.88,2.06,4.95,2.66,4.52,5.82,8.93,8.75,13.29,1.32.03,15.52-17.98,16.58-20.4.87-1.98,1.2-3.41.93-5.59l1.84.87c1.2-2.99,3.62-4.45,2.16-7.87l1.92.97c3.67-8.17,6.92-16.52,8.05-25.5.37-2.96-2.14.46-1.99-.97l2.02-4.98-3.01-.52ZM124.99,283.06l3.58-2.45-.6-5.54-1.98,1.99.98-9.99-3.1,4.46,1.11,11.53ZM128.98,373.06c-2.68-6.63.72-14.75.03-20.49-.17-1.38-.6-2.91-2.01-1.5-.42,6.23-7.36,21.39,1.98,21.99ZM120.98,578.06l6.06-10.53c-1.92-3.66-.11-8.05-3.55-10.46-1.57,5.66-2.61,11.94-3.2,17.79-.11,1.1-1.18,3.4.7,3.19ZM122.98,366.06l1.02-10.49c-.17-1.29-4.32-1.05-4.01,2.91l3,7.58ZM120.01,298.07c-1.09,1.04-2.18,12.42.49,13.98,2.08,0,1.73-10.7,1.5-12.5-.18-1.39-.53-2.88-1.99-1.48ZM117,261.06l2.98-2.5v-16.5c-1.8.37-1.87,1.96-2.03,3.46-.52,4.84-.15,10.54-.95,15.54ZM118.85,295.93l1.13-15.86-2.98,2-.51-6.98-3.53,9.58,2.03,1.85c-1.68,1.81-3.42,9.79-.54,10.28l4.4-.87ZM115.31,195.36c.74-1.12,6.95-4.44,1.67-5.81-6.46,11.14-13.48,21.99-22.78,31l7.3,10.51,3.48-3.99c1.19,2.72-4.33,7.32-.47,8.99,2.25.97,2.11-4.72,3.49-5.53l-2-.95c3.97-3.68-1.01-8.99,4-13.5l-5.51,2.98c-.68.21-.69-.83-.48-1.47.94-2.88,6.88-10.65,8.75-14.25,1.29-2.47.96-5.57,2.55-7.97ZM116.99,340.07c-.87-3.31,2.01-7.65,1.73-10.37-.08-.81-4.11-10.56-5.72-8.63.28,5.53.72,12.15,2.01,17.5.37,1.52-.7,1.76,1.98,1.5ZM113,245.06c.44-7.32,5.86-13.51,4.98-20.99-5.07,2.49-4.05,7.44-5.01,11.32-.21.84-1.9.65-1.87,1.11.06.98,1.12,2.2.95,4.01-.57,5.9-4.28,16.77,3.94,18.55l1-17.99-3.99,3.99ZM116.98,317.06l.02-7.41-2.52-.6c-1.79,4.1-2.19,7.1-6.35,9.6l4.86,30.42c2.62.39,2.04-.46,2.03-2.53-.03-4.56-2.57-9.38-3.03-13.99-.24-2.47-.68-17.45,1.49-17.47l3.49,1.98ZM106.19,133.4c.81-.24,1.6.64,3.32-.2,3.63-1.76,5.63-5.89,1.45-7.7l1.06-2.87c-3.12-.83-.64-2.91-2.15-5.45-8.41,1.15-18.37-1.3-22.69,7.59l-2.2,20.3c-1.67.26-1.09-2.43-1.03-3.53.25-4.37,1.82-8.83,1.03-13.47-5.72,4.63-7.18,6.41-3.91,13.33.41.86,3.16,5.69,3.52,5.75l18.4-10.1c2.22-2.58-7.12-2.62-6.99-4.97,2.95-.6,7.11,3.22,9.44,3.05.54-.04.56-1.67.76-1.73ZM103.18,157.79c10.06-1.72,10.83-12.03,8.72-20.6-.73-.43-5.29-.33-6.29.03-1.36.48-1.35,2.35-1.77,2.64-.24.16-1.95-.74-3.51-.07-2.33.99-14.6,8.71-14.26,10.66l2.93,3.62-5.99-2.98c-3.88,3.81,8.98,14.32,11.48,16.74,4.45-1.08,4.31-5.09,6.51-8.26l-2.99-1.48,4.51-2.01.67,1.72ZM109,287.07c5.56-5.02.52-15.37.98-22-1.81.38-1.86,1.97-2.03,3.46-.62,5.69-.56,13.1,1.05,18.53ZM107.99,373.06l-7.49-14.99c-5.25,3.71-.46,6.19,1.98,10.01l5.51,4.98ZM104.98,320.06c1.58-1.47.83-10.82,1.03-13.43-.15-1.16-5.08-1.64-5.06,2.89,0,1.58,1.19,7.87,1.78,9.31.47,1.15,1.02,2.37,2.24,1.23ZM98.99,277.07c-.55,2.53,1.76,1.69,1.99,2.67.85,3.55-.95,9.13,4,11.33-.71-8.57-1.67-16.71-4-24.99l-1.99,10.99c.03-2.15,1.28-8.98-2-8.01,1.3,3.81-1.76,3.89-2.32,5.22-1.1,2.63-.77,18.12,5.31,16.79.91-1.02-1.91-10.81-1.98-12.61-.05-1.37.99-1.3.99-1.38ZM99.74,233.84c.83-2.52-1.36-5.39-3.38-6.68l-4.28,2.07.9,4.84-3.99-2.99c-.77,4.99,2.78,3.54,4.51,4.22.6.24.46,1.76.92,1.74.77-.04,5.15-2.68,5.31-3.19ZM88.99,299.06l10.07.59.78-6.42-3.83-1.16-1.53,5.01-5.47-2v3.99ZM90.99,270.07c2.07,1.46-.26,3.6,2.99,3l4-15-3.01.68c-1.18,1.98.12,5.71-.13,6.12-.62,1.02-3.54.7-3.86,5.2-.91-.64-1.82-1.16-2.99-1l-1.51,5.99-2.66-4.87-5.84.87.08-2.47c-1.21-.4-2.48-1.16-3.69-1.42-2.77-.6.51,2.16-2,2.77l-5.38.63c5.63,5.73,9.11,11.95,17.99,12.51-.23-3.11.13-5.66,4-5l-3.03,6.4,3,1.59c.42-2.91,2.79-5.68,2.99-8.62.17-2.53-1.15-4.77-.97-7.38ZM87,234.07c-.86,1.04,6.63,11.91,7.49,11.98,2.42.18-.13-5.63-.51-6.26-.51-.83-6.69-6.07-6.98-5.72ZM91.4,251.47c.35-.47,1.02-.51,1.58-.43l-12.99-9.97c2.04,1.81,6.62,16.88,8.5,16.97,1.48-2.42,1.03-4.05,2.91-6.58ZM70.99,187.07c1.11,2.73-4.85,9.78-4.84,10.51,0,.46,4.37,3.57,2.83,6.49l-2.97.49,10.52,18.46c1.92,2.2,1.77.6,1.04-1.04-1.19-2.67-3.05-5.09-4.3-7.7-1.05-2.18-3.15-5.85-2.79-8.21l11.56,21.95c2.54,1.76,8.25-6.41,9.86-8.28l-9.42-13.67-.57,2.93-4.93,1.06,4.84-6.31c-3.02-5.26-5.93-11.41-9.02-16.52-.29-.48-1.7-.03-1.82-.17-1.01-1.2-1.93-8.87-6.04-11.45-2.41-1.51-5.52-.41-6.45-3.54l-4.37,5.33c4.4,6.72,4.34,15.82,10.37,21.66l-.5-4c4.28,1.97,3.94-6.31,6.99-8ZM82.99,150.06l-3.99-11.35-2.5-.64c-4.4,5.2-1.17,8.4,2.51,12.56l3.99-.58ZM74.99,266.06c2.6.52,5.09,2.28,6.97-.48l-2.99-7.5-1.96.48c2.35,2.92-1.14,4.97-2.02,7.51ZM70,137.08c3.81,7.62,9.56-10.32,8.99-11.01l-2.5,2.01c-3.64-6.43-10.9,2.5-6.5,7.5l1.99-1.5-1.98,3.01ZM76.98,233.07c1.34-6.59-2.43-10.31-7.98-13,1.11,5.21,3.13,10.12,7.98,13ZM75.81,257.79c-.63-2.84-5.06-9.62-7.79-5.23l4.51,10.48c3.57.51,3.93-2.32,3.28-5.25ZM55,216.07c2.41,9.28,4.73,22.18,14.99,25.99-.92-6.06-4.11-10.24-7.15-15.38-.59-.99-2.1-3.43-2.65-4.26-1.42-2.18-2.96-4.89-5.19-6.34ZM69.98,263.06l-3.01-9.99-5.98,3.51c-.45,1.74,8.48,7.04,8.99,6.48ZM63.71,149.86c1.54-1.03,2.48-8.87,5.27-10.31l-5.98-1.49,4.99-1-1-6.99-18,7.49c-2.27,1.54.31,4.19,0,4.49l-2.99-.99c1.73,8.02,7.44,6.89,13.98,8.01-1.32,3.83-6.72-1.67-8.99,0l6.5,9.99c1.65-1.97,1.34-5.71,4.38-6.16l-.9-2.83c.84-.02,2.06.23,2.73-.22ZM65.97,252.03c-1.29-13.63-10.27-18.94-19.48-26.95l-1.49,1.99c-.08-1.21.38-2.72-.22-3.79-.73-1.3-11.15-7.58-12.78-10.21-.73.9,7.61,18.62,8.96,19.53.87.59,1.54.55,2.53.47l.52-4,1,3.99,2.49-2.99,2.48,2.02c-1.51,2.61-5.24,1.02-5,5.39.18,3.28,9.29,15.87,12.72,16.41,2.44.39,5.74-1.59,8.27-1.86ZM46.99,184.07c-.37,1.14-1.09,1.19-.5,2.91.78,2.29,7.13,14.16,8.67,16.41.81,1.19,1.69,2.29,2.81,3.19l2.36-.46c3.69-2.48-4.16-18.93-5.33-18.06l-2,5.99c-.9-5.29,5.64-12.51-1.99-14.99-.14,1.87-2.27,4.52-4.02,4.99,1.25-3.81,4.82-5.54,3.99-10l-3.98,1.99,1.99-3.99h-1.99s.03-1.98.03-1.98l1.89-1.42c-2.2-2.4-6.3-17.91-9.93-16.61.38-.32-.46-3.42,5-1.99-.36,1.02-.86,1.83-.57,2.99,1.16,4.56,6.84,11.87,8.29,15.19.21.47-.52,5.52,1.76,6.81,2.99-2.84,6.48-5.61,5.32-10.29l-13.79-21.24c-1.18-1.19-1.69-.1-2.56.5-1.06.74-8.27,7.31-9.18,8.33-.56.64-.86,1.35-.89,2.2-.06.61.45,1.05.6,1.51-.79.57-3.09.5-3.76,3.52l6.75,6.48c.42-3.8-2.01-7.12-2.99-10,1.6-1.16,4.45-2.7,6-4-2.2,2.67-3.17,5.01,0,7.51-3.7.71-1.43,8.78-.53,11.53,1.36,4.13,3.89,5.7,5.86,8.97.91,1.5-.6,4.88,2.67,4ZM34.99,199.07c-.44,3.07.15,6.75-1.01,9.99l-1.98-1.99-.52,3.02,26.51,21.97-4.01-8-2.98,1.01.98-4-6.03-.7c-.56-2.99-1.24-5.96-1.87-8.94-.83-3.9-1.46-7.31-3.81-12.11-.69-1.41-3.11-1.35-2.29-4.25-1.32.54-1.8,2.43-2.99,3.99.56-3.88,2.34-5.86,1.49-10,2.32,3.08,4.75,3.67,4.23,7.66l11.27,20.34c1.32-1.75-15.67-35.45-19.01-37.55-1.06-.67-2.86.18-3.98.55.36-.82,1.41-1.51,1.66-2.48.21-1.98-5.6-6.3-6.65-5.51-2.2,5.19-1.38,8.75-1.01,14-1.78-1.38-.95-2.12-1.01-4l-1.98,1.99,1.91-13.92-8.94.44c3.2,10.51,5.93,23.04,11.53,32.51.76,1.29-.18,2.53,2.49,1.97-3.01-5.62-3.55-12.68-4-18.99.36.28,1.85,1.15,1.99,1,.63-3.7.55-5.84,4.01-7-1.44,3.24-3.93,6.99-4.04,10.53-.16,5.35,3.62,12.03,4.05,17.47,2.42,2.55,3.49-7.93,3-9l1.49,2.01c.17.03,1.08-1.46,1.5-2.01ZM37.98,176.06c1.39-1.53-5.14-10.39-6.59-11.9-1.03-1.08-1.44-2.54-3.4-2.09.69,1.53,7.89,16.31,9.99,13.99ZM24.98,167.06l-.46-5.09-2.48.06-1.53-5.99c-8.52-4.86-6.87,7.66-7.53,13.02,3.66-1.2,6.33-1.26,9.99,0l.02-4,1.98,1.99Z"/>
        <path class="cls-1" d="M50.99,256.07c-2.91,1.41-4.7,1.13-8,1l-.99,8-.11-7.9c-7.72-1.29-14.49-3.76-17.9-11.1,1.28.39,2.78.9,3.91,1.61,1.31.83,5.69,5.74,6.87,6.37s5.32,1.36,6.58,1.08c1.16-.26-.02-2.49,1.63-2.05l.55,3.06c2.41.1,5.11-.35,7.46-.07Z"/>
        <path class="cls-1" d="M169.99,218.07c-5.99,7.91-2.4,18.17-7.99,26.51l1.99.49c-3.67,6.18-11.41,10.46-18,13,7.33-4.88,16.2-11.43,17.86-20.75.34-1.89-.68-2.82-.73-3.81-.03-.51,1.67-.3,1.86-1.1,1.09-4.65-.51-10.75,2.05-15.34.97.39,1.93.79,2.97,1Z"/>
        <path class="cls-1" d="M382.99,701.07c1.88-.19,2.56.27,4.54-.95,4.02-2.46,10.59-11.37,14.96-15.06,1.12-.95,1.63-2.42,3.5-1.99l-16.99,17.5,3.99,2.48c-9.26-3.41-15.11,11.13-21,12.01,3.79-4.04,7.4-8.26,11.52-12l-.52-2Z"/>
        <path class="cls-1" d="M148.99,522.07c-.26-.59-1.14-1.1-1.02-1.99h-.97c.26,2.96-2.42,6.17-3.01,7.99,1.84-6.1,4.22-13.84,4-20,.09,3.72,1.29,8.21,1,14Z"/>
        <path class="cls-1" d="M576.98,590.06l-12.17-24.32c-15.57-32.8-25.26-67.74-34.81-102.67l5.26,13.23c7.36,28.75,16.77,56.25,28.56,83.44,4.32,9.96,10.67,19.8,13.17,30.32Z"/>
        <path class="cls-1" d="M247.99,710.08l5.99,6.5c.16.74-1.05.68-1.48.49-1.99-.91-6.43-6.29-9.24-7.76-3.1-1.63-8.69-2.93-12.27-3.22l2.99,3.49c-3.33.44-6.97-4.8-10.28-6.72-3.61-2.09-8.7-3.51-12.71-4.8-.23-1.79,2.25-1,3.27-.76,8.28,1.98,15.17,7.1,23.71,8.77.46-1.97-1.01-2.37-2.08-3.41-4.36-4.21-9.91-7.43-13.9-12.1-.16-.74,1.05-.68,1.48-.49,4.75,2.17,12.85,11.98,17.6,15.41,7.14,5.15,27.26,8.08,36.56,9.44,11.11,1.63,22.62,2.52,33.85,3.15l11.5,1.98c-25.08-1.24-50.77-3.19-74.99-9.98Z"/>
        <path class="cls-1" d="M284,729.06c-.23-1.86,2.03-.79,3.04-.54,8.38,1.99,16.97,5.52,25.74,7.26,17.78,3.54,31.79,3.7,49.72,2.3,1.1-.09,3.73-.73,3.48.98-27.7,4.87-55.71-1.34-81.99-10Z"/>
        <path class="cls-1" d="M291.99,741.08l-6.99,5.98c13.33-1.62,24.84-4.54,38.51-3.99,1.21.05,3.72-.76,3.48.99-14.17.08-32.77,1.65-46.22,6.29-2.27.78-7.8,4.71-8.28,4.7-.54,0-2.15-1.71-.52-2.5l20.02-11.47Z"/>
        <path class="cls-1" d="M523,555.07l10.99,21.49,6.5,6.5,1.48-4.99-.92,8.57c-1.39.83-2.69.56-4.06-.07-3.9-1.8-12.75-26.05-14-31.49Z"/>
        <path class="cls-1" d="M550.99,610.08l13.32,7.17,16.67,6.81c-11.65,1.71-21.17-7.6-29.99-13.98Z"/>
        <path class="cls-1" d="M222,59.07l3.28-27.21,3.7-12.79c-.97,9.32-3.73,18.31-4.86,27.62-.48,3.97,1.4,10.07-2.12,12.37Z"/>
        <path class="cls-1" d="M533.99,321.06l12.99-12.99c.58,7.22-6.91,11.36-12.99,12.99Z"/>
        <path class="cls-1" d="M269.99,731.06c-2.48,2.16-21.75-8.61-23.99-11.98,5.76,1.33,10.53,7.02,16.23,8.35,3.43.8,7.34-1.66,7.77,3.63Z"/>
        <path class="cls-1" d="M73.35,576.71c-1.14-1.19-4.45-5.97-.33-4.17l15.97,17.52c-1.88.44-2.38-1.04-3.5-1.99-3.44-2.89-9.04-8.13-12.14-11.36Z"/>
        <polygon class="cls-1" points="584.98 619.06 583.75 609.81 580 597.07 584.75 608.81 584.98 619.06"/>
        <path class="cls-1" d="M445.98,290.07c-3.2,2.36-14.69-30.16-12.98-33.99l5.97,19.52c.94,2.22,1.89,4.82,3.17,6.83.64,1.01,2.07,3.09,1.82.18l-3.97-11.53c2.48-.53,1.77.54,2.6,1.86,3.17,5.06,5.89,11.27,3.39,17.13Z"/>
        <path class="cls-1" d="M382.16,236.24c-.77.9-.36,8.32-5.16,7.82l-.69-5.58c3.76-2.35,6.81-8.3,5.5-12.69-.6-2.01-4.3-3.81-3.8-6.72,6.67,3.65,4.53,8.2,4.38,13.93-.03,1.23.11,1.28,1.1,2.04l9.51-3.96c-.74,3.39-10.19,4.42-10.83,5.16Z"/>
        <path class="cls-1" d="M452.34,254.35c-1.38,2.11-.32,5.74-2.34,6.71-.4-3.11,1.53-6.57-2.02-7.5l.08-1.45,1.89-1.47c-3.75-6.32-11.84-9.93-8.94-18.57,3.34-.36,1.39.62,1.57,1.87,1.27,8.76,3.31,7.91,7.46,13.58,1.45,1.99.31,5.56,3.95,5.56v.96c-.5-.06-1.43-.04-1.65.3Z"/>
        <path class="cls-1" d="M438.98,264.06c-2.21.38-2-.17-2.49-1.95-.93-3.34-.66-7.46-1.63-10.91l-5.86-1.15,2.49-3,2.49,3.01.02-4.99,4.75,12.73.23,6.26Z"/>
        <path class="cls-1" d="M326.36,222.37l-5.36,13.69c-.09-3.27,1.97-13.59,4.61-14.88l.75,1.18Z"/>
        <path class="cls-1" d="M184.71,224.84c-2.75.13-1.16,3.14-1.88,4.05-.44.56-5.27.51-4.85,4.17l-1.48-2.99-3.49,3.99c-2.35-7.82,8.75-9.66,9-17.99l2.71,8.76Z"/>
        <path class="cls-1" d="M194.99,302.06l-12.99,4c6.4-5.83,2.97-15.73,8.5-22.99l-2.49,17,5.49-.61,1.49,2.6Z"/>
        <path class="cls-1" d="M162,273.06c-.52-2.98.8-1.58,2.34-2.1,4.72-1.6,9.66-2.8,13.64-5.89l1.01,2.98-17,5.01Z"/>
        <path class="cls-1" d="M184.99,318.06c3.78-3.91,13.05-1.86,18-.98-1.84,4.15-5.31.15-8.51-.09s-6.25,1.51-9.49,1.06Z"/>
        <path class="cls-1" d="M225.99,349.07l-2.05-11.45.06-7.54c1.01-.29,1.99,4.25,1.99,4.49v14.5Z"/>
        <path class="cls-1" d="M277.99,286.06c-2.76-1.41-5.84-1.79-8.7-2.8-.98-.34-3.45-.92-3.29-2.19,1.89-2.14,13.96,3.16,11.99,4.98Z"/>
        <path class="cls-1" d="M354.98,549.06c-1.25,1.65-1.82-.1-2-1.48-.75-5.85-.18-13.42-.99-19.51,1.2-1.59,1.82-.01,2,1.48.31,2.66,1.59,18.72.99,19.51Z"/>
        <path class="cls-1" d="M362.98,189.08l3-2-16.48-.02-12.51-1.98,31.36,1.91c5-4.37-1.61-4.35-2.89-5.91l1.04-2.01,8.48,3.02-2.99,3.49,3.02.5-1.03,1.99,6-.5c-4.67,3.93-10.18-1.85-14.94,3.09l-2.06-1.58Z"/>
        <path class="cls-1" d="M271,186.06l18.87-2.39c10.4,1.16,20.75,0,31.12-.59-.16,1.6-4.3,1.88-5.51,1.98-14.29,1.17-29.99-.27-44.48,1Z"/>
        <path class="cls-1" d="M299.99,192.06c.56-1.35,5.15-1.69,6.62-1.87,8.22-1.02,17.94-2.3,25.89-1.13l11.48.02c.23,1.74-2.27.94-3.49.99-4.68.2-9.67-.59-14.01-.44-8.84.31-17.66,2.07-26.5,2.43Z"/>
        <path class="cls-1" d="M44,274.07l5.62,7.86c2.14.31,5.09,2.96,6.84,3.05,2.28.12,4.48-2.68,6.52-1.42-8.92,6.22-18.59,1.23-18.99-9.49Z"/>
      </g>
    </g>
  </g>
</svg>